<?xml version="1.0" standalone="no"?>
<!DOCTYPE svg PUBLIC "-//W3C//DTD SVG 20010904//EN"
 "http://www.w3.org/TR/2001/REC-SVG-20010904/DTD/svg10.dtd">
<svg version="1.0" xmlns="http://www.w3.org/2000/svg"
 width="300.000000pt" height="175.000000pt" viewBox="0 0 300.000000 175.000000"
 preserveAspectRatio="xMidYMid meet">
<metadata>
Created by potrace 1.10, written by Peter Selinger 2001-2011
</metadata>
<g transform="translate(0.000000,175.000000) scale(0.100000,-0.100000)"
fill="#fdfcfc" stroke="none">
<path d="M415 1683 c-11 -8 -45 -27 -75 -42 -67 -33 -151 -96 -142 -107 4 -4
-1 -4 -11 -1 -18 7 -67 -31 -67 -52 0 -11 39 -39 85 -61 17 -8 39 -23 49 -32
11 -10 25 -18 32 -18 7 0 19 -7 28 -15 8 -8 34 -24 58 -35 68 -31 162 -87 166
-99 2 -6 8 -9 13 -5 5 3 9 1 9 -4 0 -9 37 -25 53 -23 4 1 7 -3 7 -7 0 -5 16
-17 35 -28 19 -10 35 -23 35 -28 0 -5 3 -7 6 -3 3 3 34 -11 68 -32 33 -21 94
-57 134 -80 39 -24 72 -48 72 -55 0 -6 5 -4 10 4 8 12 11 11 16 -8 4 -15 12
-21 21 -18 8 3 11 1 8 -4 -3 -5 5 -12 19 -16 25 -6 56 -33 40 -35 -5 0 -17 -2
-27 -4 -10 -2 -31 0 -47 5 -23 6 -35 4 -53 -11 -31 -23 -181 -112 -186 -109
-2 1 -16 -17 -31 -40 -34 -52 -32 -85 11 -174 38 -78 71 -116 130 -150 65 -37
104 -34 185 16 38 23 88 50 111 60 24 10 54 34 69 53 20 27 28 32 39 22 7 -7
11 -15 8 -19 -2 -4 6 -4 19 1 13 4 27 18 33 29 11 24 32 28 69 11 22 -10 28
-8 60 25 42 41 54 43 87 18 13 -10 56 -37 96 -61 39 -23 82 -51 94 -62 12 -10
27 -19 34 -19 7 0 20 -9 30 -20 10 -11 21 -17 25 -15 4 3 13 -2 20 -10 7 -8
19 -15 26 -15 8 0 14 -4 14 -10 0 -5 7 -10 15 -10 8 0 29 -18 47 -41 23 -28
38 -39 51 -35 12 3 56 -17 116 -52 53 -31 108 -63 123 -71 15 -8 37 -23 48
-33 11 -10 20 -16 20 -12 0 4 8 0 17 -8 10 -8 42 -28 70 -44 29 -16 53 -32 53
-36 0 -19 51 -5 104 27 32 19 60 35 62 35 2 0 28 16 58 35 30 19 59 35 63 35
4 0 19 9 32 19 24 18 24 20 8 45 -10 14 -24 26 -32 26 -8 0 -15 5 -15 11 0 6
15 1 34 -10 29 -18 35 -19 46 -7 15 19 10 46 -13 60 -13 8 -20 8 -26 -2 -6 -9
-12 -8 -26 8 -23 25 -37 25 -55 0 -14 -20 -37 -29 -25 -10 3 6 1 10 -4 10 -18
0 -26 3 -39 17 -7 7 -20 13 -28 13 -8 0 -14 5 -14 10 0 6 -5 10 -10 10 -6 0
-29 12 -53 27 -23 15 -68 41 -100 58 -31 17 -66 38 -76 47 -10 9 -28 19 -40
23 -11 3 -27 12 -33 19 -7 6 -40 27 -73 46 -33 18 -62 37 -65 40 -3 4 -23 17
-45 29 -22 12 -62 35 -90 51 -27 16 -64 37 -82 46 -44 22 -57 39 -41 51 16 13
259 153 265 153 2 0 31 18 63 40 32 22 63 40 67 40 4 0 19 16 31 35 18 25 24
48 24 84 -1 42 3 53 24 69 73 53 24 200 -85 257 -26 13 -34 13 -73 -2 -42 -15
-46 -15 -73 3 -16 10 -37 18 -47 16 -9 -2 -26 1 -36 7 -15 8 -25 6 -43 -10
-13 -12 -34 -25 -46 -30 -30 -11 -29 -27 2 -35 34 -8 31 -20 -6 -28 -35 -7
-35 -32 0 -29 23 3 27 -7 9 -25 -9 -9 -9 -12 0 -12 17 0 27 29 14 42 -8 8 -4
16 11 29 16 13 18 18 7 19 -10 0 -7 7 10 20 14 11 21 20 15 19 -5 0 -19 -6
-29 -14 -11 -8 -25 -15 -30 -15 -6 0 5 10 24 23 42 28 97 29 151 3 34 -18 37
-17 77 2 43 20 53 15 44 -21 -3 -10 -11 -16 -18 -13 -7 3 -17 -2 -22 -11 -5
-9 -15 -13 -21 -9 -8 5 -4 14 11 26 13 11 19 19 14 20 -5 0 -19 -11 -31 -24
-17 -18 -26 -21 -34 -13 -8 8 -11 8 -11 -1 0 -7 3 -12 8 -13 48 -5 70 -13 85
-30 l17 -21 0 21 c0 12 -4 21 -10 21 -5 0 -10 5 -10 10 0 14 28 12 33 -2 2 -7
7 -10 11 -6 4 3 2 15 -5 27 -17 27 -6 37 21 18 44 -31 75 -89 75 -142 0 -45
-3 -51 -29 -65 -27 -14 -29 -20 -31 -75 -2 -73 -14 -94 -73 -125 -25 -14 -50
-29 -56 -35 -14 -12 -29 -21 -186 -108 -69 -38 -137 -78 -152 -88 -23 -17 -30
-18 -48 -7 -17 11 -22 11 -30 -2 -7 -11 -10 -11 -10 -2 0 7 -5 10 -10 7 -6 -4
-5 -12 4 -21 16 -15 28 -19 23 -6 -4 13 7 14 36 3 36 -14 46 -14 27 0 -12 9
-11 10 5 4 22 -7 108 -57 285 -167 166 -103 513 -315 593 -361 37 -22 65 -42
63 -45 -10 -9 -76 -10 -70 -1 3 5 -3 9 -12 9 -10 0 -14 3 -11 7 8 8 -53 51
-93 65 -17 5 -30 14 -30 19 0 5 -7 9 -15 9 -8 0 -15 -7 -15 -16 0 -8 -4 -13
-9 -10 -5 4 -18 3 -29 -1 -19 -8 -19 -8 0 -28 11 -11 18 -15 16 -10 -2 6 1 11
6 12 5 1 13 7 17 15 8 11 10 11 18 0 4 -8 11 -13 15 -13 18 3 20 0 6 -9 -8 -5
-23 -7 -32 -4 -12 3 -18 0 -18 -10 0 -20 -5 -20 -35 0 -23 15 -25 15 -25 1 0
-32 34 -38 80 -15 31 16 45 18 48 10 2 -7 8 -12 13 -12 6 0 6 8 -1 19 -16 30
-12 37 9 15 10 -10 16 -23 13 -28 -3 -5 7 -6 22 -2 15 4 26 2 26 -4 0 -5 -9
-10 -21 -10 -11 0 -18 -4 -15 -9 3 -4 17 -6 31 -4 17 4 27 0 31 -11 5 -12 10
-13 25 -5 10 5 19 7 19 5 0 -6 -55 -36 -65 -36 -3 0 -3 5 1 12 4 7 3 8 -5 4
-6 -4 -9 -11 -6 -16 14 -22 -20 -19 -56 4 -25 17 -39 22 -39 13 0 -7 14 -18
30 -24 35 -13 39 -31 8 -32 -13 0 -32 -1 -43 -2 -11 0 -31 3 -45 7 -22 6 -23
5 -12 -8 10 -13 9 -16 -7 -21 -11 -2 -24 0 -30 6 -6 6 -14 8 -18 4 -4 -4 -1
-13 5 -19 8 -8 21 -7 52 5 22 8 38 11 35 6 -9 -14 3 -11 31 7 13 9 27 14 30
12 4 -5 -81 -58 -93 -58 -2 0 -1 6 3 13 4 7 3 9 -2 4 -5 -5 -10 -13 -10 -18
-1 -5 -2 -12 -3 -16 0 -3 -9 1 -18 9 -20 17 -247 154 -333 201 -30 17 -74 43
-97 59 -33 22 -43 25 -43 13 0 -8 -5 -15 -11 -15 -6 0 -9 8 -7 18 4 12 -3 24
-16 32 -11 7 -123 76 -249 152 l-227 138 -12 -25 c-6 -13 -19 -27 -30 -30 -10
-4 -18 -13 -18 -21 0 -8 -4 -14 -10 -14 -5 0 -10 6 -10 13 0 10 -15 11 -67 6
-38 -5 -78 -8 -90 -8 -16 -1 -23 -7 -23 -21 0 -30 -24 -51 -115 -100 -44 -23
-93 -52 -108 -63 -38 -26 -83 -25 -125 5 -15 10 -20 18 -12 23 6 4 18 1 27 -7
14 -11 15 -10 9 10 -7 21 -6 22 12 11 12 -7 19 -16 16 -20 -2 -4 2 -12 9 -18
10 -8 19 -6 35 5 21 15 31 54 14 54 -5 0 -15 11 -22 25 -7 13 -20 27 -29 30
-9 3 -24 17 -35 31 -15 21 -16 30 -7 47 13 27 9 83 -7 99 -15 15 -16 0 -2 -36
7 -21 6 -26 -5 -26 -9 0 -12 6 -9 15 4 10 0 15 -12 15 -9 0 -14 3 -11 6 4 4
-3 15 -15 25 -24 22 -46 26 -29 6 6 -8 7 -18 3 -22 -4 -5 -1 -4 7 0 11 6 13 4
8 -8 -4 -11 -2 -14 8 -10 9 3 18 -4 25 -21 6 -17 14 -24 25 -20 14 6 14 3 4
-20 -11 -23 -9 -30 8 -54 15 -20 18 -33 12 -50 -6 -17 -5 -22 7 -22 8 0 13 -4
9 -9 -3 -5 -24 -8 -48 -7 -23 2 -34 2 -24 -1 19 -5 22 -18 6 -28 -5 -4 -24 8
-41 25 -24 26 -28 34 -17 42 11 8 10 9 -3 4 -17 -5 -22 4 -19 33 2 7 -2 10 -8
6 -14 -8 -33 39 -24 61 5 14 8 13 19 -7 16 -29 18 -20 4 17 -10 26 -11 26 -25
8 -15 -20 -18 -16 -16 31 2 32 30 95 43 95 4 0 29 14 55 30 48 31 69 38 58 20
-3 -6 1 -7 10 -3 13 4 14 8 4 14 -11 6 -10 9 3 14 10 4 22 4 28 0 6 -4 9 -1 8
5 -2 6 14 17 35 24 34 13 37 12 37 -5 0 -10 8 -23 18 -28 16 -10 15 -11 -5
-17 -20 -6 -32 -22 -39 -51 -3 -15 22 -17 31 -3 3 6 1 10 -5 10 -19 0 -6 23
15 26 10 1 22 8 26 16 6 9 9 8 15 -5 3 -9 10 -14 15 -11 16 10 9 21 -26 40
-42 22 -46 38 -6 29 23 -5 31 -1 45 20 10 15 16 28 14 30 -2 1 -19 11 -38 22
-19 10 -53 30 -75 45 -35 22 -597 353 -650 382 -11 6 -22 14 -25 17 -3 3 -48
30 -101 60 l-97 55 79 50 c44 27 111 68 150 92 l71 43 61 -42 c34 -22 62 -44
62 -47 0 -4 4 -13 8 -19 5 -8 3 -13 -5 -14 -7 -1 -17 -2 -23 -4 -5 -1 -16 -3
-22 -3 -18 -3 -16 -19 1 -25 10 -4 13 -1 9 9 -3 7 -1 14 5 14 6 0 12 -5 14
-11 2 -6 14 -1 27 10 13 12 26 21 29 21 5 0 58 -32 332 -198 427 -261 469
-284 504 -276 43 10 110 11 117 1 3 -5 14 -1 23 8 9 10 14 20 11 23 -3 4 -10
0 -15 -8 -8 -12 -10 -10 -10 8 0 12 9 30 19 39 11 9 18 21 15 25 -6 9 32 48
46 48 4 0 13 -7 20 -15 13 -16 5 -20 -28 -16 -11 2 -11 -2 -1 -21 15 -29 24
-38 16 -16 -4 12 3 21 24 32 28 14 30 14 25 -2 -3 -9 -1 -24 5 -32 8 -12 9
-10 4 8 -5 16 -2 22 9 22 19 0 30 -17 15 -22 -7 -2 -9 -13 -5 -26 6 -18 13
-21 34 -16 25 5 26 4 9 -9 -13 -11 -15 -16 -5 -19 10 -4 10 -9 -2 -23 -9 -11
-10 -16 -2 -11 7 4 15 1 18 -8 3 -9 10 -16 14 -16 10 0 8 20 -4 39 -6 10 -5
12 2 7 8 -4 12 0 12 12 0 25 -33 54 -54 46 -9 -3 -16 -1 -16 5 0 10 14 15 33
12 20 -3 -27 48 -49 53 -15 4 -22 11 -18 18 5 7 1 8 -12 0 -14 -8 -21 -6 -29
5 -10 14 -15 13 -39 -8 -30 -25 -72 -97 -67 -114 1 -5 -3 -4 -10 3 -16 15 -33
16 -23 1 5 -8 -2 -10 -22 -6 -15 3 -39 1 -52 -4 -17 -7 -32 -5 -51 5 -112 59
-168 90 -182 102 -8 8 -21 14 -27 14 -7 0 -12 4 -12 8 0 4 -12 13 -27 20 -16
6 -59 32 -98 57 -38 24 -77 48 -85 51 -8 4 -37 21 -65 38 -27 17 -62 38 -77
45 -16 8 -28 18 -28 22 0 4 -10 9 -22 13 -13 3 -47 21 -76 41 -30 19 -56 35
-58 35 -13 0 -115 69 -146 99 -21 19 -38 31 -38 26 0 -6 -4 -5 -8 2 -5 8 -12
7 -27 -4z m170 -113 c3 -5 2 -10 -4 -10 -5 0 -13 5 -16 10 -3 6 -2 10 4 10 5
0 13 -4 16 -10z m745 -1011 c0 -5 -7 -9 -15 -9 -15 0 -20 12 -9 23 8 8 24 -1
24 -14z m-354 -71 c7 -10 -14 -38 -28 -38 -5 0 -8 6 -5 13 2 6 0 19 -4 29 -7
13 -5 15 11 11 11 -3 23 -10 26 -15z m7 -50 c-21 -23 -37 -23 -22 0 7 10 18
19 25 19 11 0 10 -5 -3 -19z m1759 -113 c0 -5 -5 -11 -11 -13 -6 -2 -11 4 -11
13 0 9 5 15 11 13 6 -2 11 -8 11 -13z m68 -20 c0 -8 -7 -15 -15 -15 -16 0 -20
12 -8 23 11 12 23 8 23 -8z"/>
<path d="M399 1630 c-15 -11 -38 -26 -51 -33 l-25 -13 26 -19 c18 -13 22 -14
13 -3 -11 14 -8 19 18 38 16 12 33 19 38 16 4 -2 8 4 8 15 0 10 0 19 -1 19 0
0 -12 -9 -26 -20z"/>
<path d="M2825 1641 c-3 -5 7 -11 22 -13 18 -2 29 -10 31 -22 5 -25 -16 -36
-45 -23 -29 13 -37 5 -29 -26 7 -29 36 -39 60 -21 27 19 33 84 10 101 -21 15
-40 17 -49 4z m25 -86 c0 -8 -7 -15 -15 -15 -16 0 -20 12 -8 23 11 12 23 8 23
-8z"/>
<path d="M454 1618 c8 -44 28 -68 54 -63 14 2 27 7 31 11 3 4 -7 4 -22 2 -18
-4 -26 -1 -24 6 2 6 15 10 28 9 22 -2 21 -1 -6 13 -16 9 -38 24 -48 32 -17 15
-18 14 -13 -10z m35 -17 c8 -5 9 -11 3 -15 -5 -3 -15 1 -22 9 -14 16 -3 20 19
6z"/>
<path d="M2805 1610 c-3 -5 -1 -10 4 -10 6 0 11 5 11 10 0 6 -2 10 -4 10 -3 0
-8 -4 -11 -10z"/>
<path d="M380 1590 c-9 -6 -11 -13 -5 -17 6 -5 10 -15 10 -23 0 -8 5 -15 11
-15 6 0 26 -12 44 -27 18 -15 37 -25 41 -23 4 3 11 -4 14 -16 6 -17 9 -19 16
-8 7 11 9 11 9 -2 0 -11 9 -16 25 -16 14 0 25 3 25 7 0 16 -47 46 -72 45 -25
-1 -33 6 -29 28 0 4 -10 7 -23 7 -18 0 -27 8 -34 29 -6 16 -8 32 -5 35 10 10
-11 6 -27 -4z"/>
<path d="M420 1566 c0 -16 37 -28 46 -15 3 5 -2 9 -11 9 -9 0 -13 5 -10 10 3
6 -1 10 -9 10 -9 0 -16 -6 -16 -14z"/>
<path d="M298 1563 c7 -3 16 -2 19 1 4 3 -2 6 -13 5 -11 0 -14 -3 -6 -6z"/>
<path d="M241 1531 c-11 -11 -22 -17 -24 -14 -7 6 -47 -20 -47 -31 0 -4 7 -3
15 4 8 6 23 9 36 5 14 -5 19 -4 15 4 -4 6 7 19 26 31 22 13 27 20 16 20 -10 0
-27 -9 -37 -19z"/>
<path d="M276 1523 c-15 -8 -25 -17 -22 -20 3 -4 18 0 32 7 20 11 27 12 33 1
5 -7 12 -13 17 -13 5 0 8 -4 7 -9 -2 -5 2 -9 8 -9 5 0 7 -5 3 -11 -5 -8 3 -10
25 -7 37 5 38 3 7 -17 -21 -14 -26 -14 -67 10 -45 25 -99 33 -99 14 0 -5 4 -8
9 -5 5 3 11 -1 15 -9 3 -8 14 -15 25 -15 11 0 23 -5 27 -11 4 -7 9 -7 13 -1 3
5 14 6 25 3 17 -7 17 -8 2 -24 -10 -9 -12 -17 -6 -17 6 0 26 -11 44 -25 18
-14 38 -25 44 -25 7 0 12 -4 12 -8 0 -5 11 -14 25 -20 21 -10 30 -9 49 3 21
14 25 14 39 0 10 -9 18 -11 22 -5 4 6 11 7 17 4 6 -4 17 1 24 10 7 10 18 15
24 11 17 -11 -20 -47 -42 -42 -10 3 -16 2 -13 -3 6 -9 -25 -23 -33 -15 -3 3 1
5 9 5 8 1 1 8 -14 16 -16 9 -31 13 -34 10 -11 -10 16 -32 69 -57 29 -13 58
-29 63 -36 12 -14 260 -153 274 -153 5 0 11 -3 13 -7 2 -5 23 -18 48 -30 25
-13 56 -30 70 -39 l25 -16 -24 21 c-29 27 -11 28 20 1 21 -17 22 -21 9 -30
-11 -8 -8 -9 15 -5 17 2 32 -1 37 -8 5 -9 10 -9 19 0 15 15 3 34 -18 26 -12
-5 -14 -3 -8 8 7 12 6 12 -7 1 -10 -8 -19 -9 -22 -3 -4 5 3 12 14 16 11 3 20
11 20 16 0 11 -50 32 -58 24 -4 -3 4 -8 16 -12 12 -3 22 -10 22 -15 0 -5 -5
-6 -10 -3 -5 3 -10 0 -10 -7 0 -7 -8 -3 -18 9 -12 16 -24 21 -38 17 -21 -6
-80 23 -69 34 3 3 14 -3 25 -13 24 -21 39 -13 20 11 -10 11 -23 14 -47 9 -31
-6 -48 8 -20 18 6 2 3 3 -7 1 -10 -2 -34 9 -52 23 -18 14 -50 30 -71 37 -65
21 -163 68 -163 79 0 6 4 6 13 -1 21 -18 127 -61 127 -52 0 4 -27 21 -60 36
-33 15 -58 29 -56 32 2 2 15 -1 28 -8 22 -11 22 -10 4 4 -11 9 -24 16 -29 16
-4 0 -5 5 -1 12 4 7 3 8 -5 4 -6 -4 -9 -12 -6 -17 8 -12 4 -12 -40 7 -20 8
-35 18 -32 20 3 3 15 0 27 -6 12 -6 24 -9 27 -6 3 3 -1 8 -10 12 -15 5 -15 8
-1 21 13 14 17 13 39 -7 18 -17 27 -20 41 -12 17 9 16 12 -11 24 -17 7 -38 20
-49 30 -10 9 -32 22 -50 29 -17 7 -35 19 -39 26 -11 18 -27 16 -27 -2 0 -8 5
-15 10 -15 6 0 10 -7 10 -15 0 -8 -3 -14 -7 -13 -5 1 -23 -6 -40 -15 -18 -10
-33 -14 -33 -9 0 5 -27 24 -61 42 -33 17 -58 34 -56 37 3 2 17 -3 31 -12 14
-9 29 -14 34 -11 6 3 15 -1 23 -10 18 -22 47 -36 53 -25 6 10 -60 54 -81 54
-7 0 -13 4 -13 8 0 5 -7 6 -15 3 -9 -4 -15 0 -15 10 0 9 3 16 8 17 4 0 17 2
30 5 12 2 22 -1 22 -6 0 -6 -6 -10 -12 -10 -9 0 -8 -4 2 -10 23 -15 28 -12 25
15 -3 31 4 24 -76 73 -62 37 -67 39 -93 25z m299 -183 c-10 -11 -21 -17 -24
-14 -3 3 3 12 13 20 28 20 32 17 11 -6z"/>
<path d="M481 1524 c0 -11 3 -14 6 -6 3 7 2 16 -1 19 -3 4 -6 -2 -5 -13z"/>
<path d="M576 1521 c-19 -7 -19 -8 0 -15 37 -15 66 -17 58 -5 -4 7 -2 10 7 7
8 -3 13 -11 11 -17 -1 -7 2 -10 8 -6 6 4 22 -1 35 -9 14 -9 25 -13 25 -9 0 5
-23 21 -51 36 -28 15 -48 23 -44 17 8 -12 -7 -13 -20 -1 -6 5 -19 6 -29 2z"/>
<path d="M425 1490 c3 -5 8 -10 11 -10 2 0 4 5 4 10 0 6 -5 10 -11 10 -5 0 -7
-4 -4 -10z"/>
<path d="M550 1496 c0 -3 14 -12 30 -21 17 -9 30 -11 30 -6 0 5 -8 11 -17 15
-10 3 -24 9 -30 12 -7 3 -13 3 -13 0z"/>
<path d="M305 1480 c3 -5 11 -10 16 -10 6 0 7 5 4 10 -3 6 -11 10 -16 10 -6 0
-7 -4 -4 -10z"/>
<path d="M622 1463 c2 -12 13 -18 32 -18 20 0 31 -6 36 -20 9 -25 40 -53 40
-36 0 6 -4 11 -10 11 -5 0 -17 16 -25 36 -13 31 -17 34 -30 24 -12 -10 -16 -9
-21 4 -8 22 -26 20 -22 -1z"/>
<path d="M2056 1463 c-4 -9 -4 -18 -1 -21 2 -3 7 2 11 11 5 14 9 14 27 2 19
-11 24 -11 35 1 7 8 9 14 5 15 -4 0 -22 2 -40 4 -22 3 -33 0 -37 -12z"/>
<path d="M584 1452 c7 -12 -21 -24 -37 -16 -7 3 -3 -2 7 -10 13 -10 23 -13 29
-7 7 7 17 7 28 1 11 -7 20 -7 24 0 3 5 -8 16 -26 25 -17 9 -28 12 -25 7z"/>
<path d="M740 1450 c0 -5 -8 -6 -17 -3 -10 4 -2 -9 17 -28 34 -34 57 -48 72
-45 4 0 14 -9 23 -21 19 -27 121 -87 134 -78 5 3 13 -1 18 -8 7 -12 53 -31 53
-22 0 2 -15 12 -32 24 -42 27 -24 27 20 1 36 -22 34 -43 -3 -36 -18 3 -22 1
-18 -10 3 -8 11 -13 17 -11 7 3 25 -1 41 -7 l30 -13 -23 -12 c-26 -14 -45 -5
-22 9 8 6 11 10 5 10 -5 0 -17 -5 -25 -10 -12 -7 -9 -14 19 -40 33 -28 69 -42
56 -20 -3 6 -13 10 -21 10 -8 0 -14 7 -14 15 0 8 3 14 8 14 42 -7 43 23 1 44
-18 8 -26 17 -20 21 9 6 54 -16 71 -34 7 -8 49 -30 56 -30 22 0 -21 31 -161
115 -88 53 -175 106 -192 117 -18 11 -33 15 -33 10 0 -5 10 -12 22 -15 12 -4
20 -9 16 -12 -7 -7 -60 16 -70 30 -4 5 -3 12 2 15 5 3 0 11 -10 18 -11 7 -20
8 -20 2z m178 -114 c38 -23 60 -42 55 -49 -5 -8 -8 -8 -11 1 -2 7 -12 12 -22
12 -10 0 -22 5 -25 11 -4 5 -18 15 -32 20 -14 5 -23 12 -20 16 4 3 -1 12 -11
20 -24 20 -6 12 66 -31z"/>
<path d="M1880 1442 c-19 -9 -37 -19 -40 -22 -17 -17 -77 -54 -141 -86 -120
-61 -160 -97 -179 -165 -7 -23 -5 -29 7 -29 10 0 14 6 10 19 -2 10 0 26 5 36
9 14 12 15 20 4 7 -12 9 -11 7 1 -3 34 2 50 17 50 8 0 12 -4 9 -10 -3 -6 1 -7
10 -3 12 4 13 8 5 13 -19 11 6 23 33 15 15 -4 18 -3 9 3 -10 7 -1 16 35 37 26
16 51 33 54 38 4 5 13 7 21 5 8 -3 25 5 38 19 12 13 29 22 37 19 8 -3 12 -2 9
3 -7 11 62 53 75 46 5 -4 6 1 3 9 -3 9 -7 16 -8 15 0 0 -17 -8 -36 -17z"/>
<path d="M2015 1450 c-3 -5 1 -10 9 -10 9 0 16 5 16 10 0 6 -4 10 -9 10 -6 0
-13 -4 -16 -10z"/>
<path d="M463 1409 c0 -16 4 -29 9 -29 5 0 6 5 3 10 -3 6 -1 10 4 10 6 0 11
-4 11 -10 0 -5 7 -7 15 -4 19 8 3 39 -23 46 -15 4 -19 0 -19 -23z"/>
<path d="M2078 1431 c-1 -4 -14 -12 -27 -16 -18 -5 -22 -4 -16 6 6 9 3 11 -9
6 -10 -4 -22 -7 -28 -7 -5 0 -9 -12 -8 -27 1 -16 1 -31 0 -35 -1 -5 -3 -14 -4
-20 -2 -17 -26 -11 -43 10 -11 15 -12 13 -11 -13 2 -43 7 -47 30 -31 11 8 27
12 34 9 17 -6 18 9 2 25 -8 8 -9 12 -1 12 6 0 14 -6 16 -12 4 -9 12 -5 26 12
23 28 26 40 11 40 -5 0 -10 -7 -10 -16 0 -11 -5 -14 -16 -10 -9 3 -18 6 -20 6
-2 0 -4 10 -4 23 1 21 1 22 15 3 8 -11 15 -15 15 -9 0 16 32 25 41 11 4 -6 5
-16 3 -20 -9 -14 9 -8 28 9 16 14 23 15 39 5 11 -7 19 -8 19 -2 0 5 7 10 16
10 8 0 13 -3 11 -7 -3 -5 1 -14 9 -21 17 -15 18 -8 4 19 -7 13 -20 19 -38 17
-15 -1 -33 2 -40 6 -8 5 -19 1 -28 -10 -14 -18 -15 -17 -9 9 5 25 1 38 -7 18z"/>
<path d="M643 1407 c-21 -23 -21 -23 -2 -35 16 -10 21 -10 25 3 4 8 3 22 0 31
-3 8 -2 12 4 9 6 -3 10 -1 10 4 0 17 -13 13 -37 -12z"/>
<path d="M2268 1403 c10 -4 10 -8 2 -18 -9 -10 -9 -19 0 -32 7 -11 10 -12 7
-3 -2 8 3 20 11 26 18 13 8 34 -16 33 -11 0 -13 -2 -4 -6z"/>
<path d="M680 1386 c0 -9 5 -16 10 -16 6 0 10 4 10 9 0 6 -4 13 -10 16 -5 3
-10 -1 -10 -9z"/>
<path d="M2322 1374 c10 -21 9 -27 -3 -35 -12 -8 -12 -10 0 -18 11 -7 9 -10
-8 -16 -22 -7 -29 -35 -8 -35 13 0 32 39 39 81 3 18 -1 30 -13 38 -17 10 -18
9 -7 -15z"/>
<path d="M1857 1358 c-18 -18 -35 -31 -39 -30 -13 3 -9 -26 4 -34 7 -4 8 -3 4
4 -4 7 -1 12 7 12 10 0 13 -7 10 -20 -3 -11 -10 -17 -16 -13 -6 3 -7 1 -3 -5
4 -7 0 -13 -11 -14 -33 -2 -38 -4 -56 -14 -15 -9 -16 -12 -3 -29 8 -11 18 -16
22 -12 5 4 2 12 -5 16 -10 7 -9 10 8 15 11 3 31 9 42 12 14 4 19 2 15 -5 -4
-6 -2 -11 3 -11 6 0 11 6 12 13 0 6 2 34 4 60 2 44 15 81 15 44 0 -23 20 -22
21 1 1 9 1 20 0 25 0 4 4 7 10 7 6 0 8 -9 4 -20 -3 -11 -2 -20 3 -20 11 0 23
36 14 44 -13 13 -35 4 -65 -26z"/>
<path d="M2220 1373 c0 -13 5 -23 10 -23 13 0 13 11 0 30 -8 12 -10 11 -10 -7z"/>
<path d="M760 1366 c8 -10 15 -25 17 -34 1 -9 9 -22 17 -28 9 -6 16 -18 16
-27 0 -15 12 -24 149 -107 22 -14 41 -28 41 -31 0 -6 -45 -29 -57 -29 -3 0 0
6 6 14 13 16 -1 32 -19 21 -5 -3 -7 0 -4 8 3 9 -7 20 -28 31 -18 10 -61 35
-96 56 -38 23 -71 36 -83 33 -23 -6 -24 -16 -4 -33 8 -7 12 -17 8 -23 -4 -6
-1 -7 6 -3 7 5 10 14 7 22 -3 7 -1 16 4 19 6 4 10 -1 10 -9 0 -8 5 -18 12 -22
8 -5 9 -2 4 11 -5 14 1 12 29 -9 19 -15 40 -24 45 -21 6 3 14 -4 19 -17 5 -13
27 -38 50 -56 32 -26 48 -32 67 -28 13 4 24 11 24 16 0 6 7 10 15 10 28 0 15
15 -40 45 -30 16 -55 33 -55 37 0 4 -5 8 -10 8 -18 0 -93 54 -81 58 6 2 8 9 5
15 -4 7 10 -4 30 -24 20 -20 51 -44 69 -53 17 -9 42 -24 55 -32 20 -15 22 -15
22 1 0 20 -65 85 -83 85 -7 0 8 -19 33 -41 25 -22 38 -37 30 -33 -8 4 -35 26
-58 48 -54 50 -82 67 -104 60 -10 -3 -21 3 -29 17 -10 19 -9 21 6 16 10 -4 15
-3 13 4 -2 6 -8 10 -13 10 -6 0 -21 7 -35 16 -24 16 -24 16 -10 -1z"/>
<path d="M707 1359 c-9 -5 -22 -7 -27 -4 -6 3 -10 4 -10 1 0 -2 27 -22 60 -44
33 -22 60 -36 60 -31 0 4 -13 15 -30 24 -35 18 -40 29 -8 19 21 -6 22 -6 7 17
-19 28 -29 31 -52 18z m23 -19 c0 -5 -4 -10 -9 -10 -6 0 -13 5 -16 10 -3 6 1
10 9 10 9 0 16 -4 16 -10z"/>
<path d="M2150 1355 c0 -8 7 -15 15 -15 9 0 12 6 9 15 -4 8 -10 15 -15 15 -5
0 -9 -7 -9 -15z"/>
<path d="M2290 1355 c0 -8 5 -15 10 -15 6 0 10 7 10 15 0 8 -4 15 -10 15 -5 0
-10 -7 -10 -15z"/>
<path d="M2105 1349 c-12 -19 5 -23 22 -6 16 16 16 17 1 17 -9 0 -20 -5 -23
-11z"/>
<path d="M2183 1320 c-3 -11 -9 -18 -13 -15 -4 3 -11 -2 -14 -11 -6 -15 -4
-15 16 -1 13 8 22 20 21 26 -2 6 4 7 14 4 11 -4 14 -3 9 5 -11 18 -27 14 -33
-8z"/>
<path d="M2239 1338 c-7 -25 -5 -36 6 -31 8 2 11 11 8 19 -5 12 -12 18 -14 12z"/>
<path d="M1776 1316 c3 -9 -5 -20 -23 -30 -16 -9 -22 -16 -13 -16 9 -1 5 -5
-8 -11 -14 -5 -20 -13 -16 -21 5 -7 20 4 45 33 35 41 41 59 19 59 -5 0 -7 -6
-4 -14z"/>
<path d="M1904 1305 c-3 -14 -14 -30 -23 -35 -9 -6 -11 -10 -3 -10 22 0 13
-30 -13 -42 -14 -6 -25 -17 -25 -25 0 -7 -5 -13 -10 -13 -11 0 -8 -30 6 -64 5
-14 4 -17 -5 -11 -10 5 -11 2 -6 -14 4 -13 2 -21 -5 -21 -7 0 -10 -13 -8 -32
3 -29 0 -33 -24 -36 -29 -3 -37 -17 -15 -25 6 -2 20 2 30 11 9 8 20 12 24 8 4
-4 1 -11 -7 -16 -13 -8 -13 -10 1 -10 24 0 30 27 20 80 -1 3 -6 -2 -12 -10 -9
-13 -10 -13 -5 0 29 86 30 92 15 101 -12 7 -12 9 1 9 11 0 12 2 2 8 -9 6 -4
16 17 36 16 16 33 26 38 23 5 -3 9 5 9 19 0 13 -5 24 -10 24 -6 0 -4 5 4 10 8
5 16 21 17 35 2 32 -5 32 -13 0z"/>
<path d="M2111 1313 c-14 -11 -14 -14 -1 -23 19 -12 30 -13 30 -1 0 5 -8 12
-17 14 -15 4 -15 5 2 6 11 1 27 6 35 11 11 7 10 9 -9 7 -13 -1 -31 -7 -40 -14z"/>
<path d="M2280 1320 c0 -5 5 -10 11 -10 5 0 7 5 4 10 -3 6 -8 10 -11 10 -2 0
-4 -4 -4 -10z"/>
<path d="M1727 1305 c-15 -6 -24 -15 -20 -19 5 -5 -3 -6 -17 -2 -14 3 -19 3
-12 0 6 -3 10 -10 6 -15 -10 -16 16 -9 35 10 10 10 25 21 32 23 8 3 12 7 9 10
-3 3 -17 0 -33 -7z"/>
<path d="M1867 1300 c-3 -11 -1 -20 4 -20 5 0 9 2 9 4 0 2 3 11 6 20 3 9 2 16
-4 16 -5 0 -12 -9 -15 -20z"/>
<path d="M2032 1305 c-7 -8 -8 -15 -3 -15 5 0 13 5 16 11 4 6 13 8 21 5 7 -3
16 -1 19 4 10 16 -39 11 -53 -5z"/>
<path d="M2203 1295 c0 -8 4 -15 9 -15 4 0 8 7 8 15 0 8 -4 15 -8 15 -5 0 -9
-7 -9 -15z"/>
<path d="M2053 1288 c2 -7 10 -12 16 -10 6 1 12 -8 12 -20 1 -18 2 -19 6 -5 5
19 -13 47 -29 47 -5 0 -8 -6 -5 -12z"/>
<path d="M2260 1290 c0 -5 -7 -7 -15 -4 -8 4 -15 2 -15 -3 0 -5 9 -9 20 -10
11 -1 20 4 20 13 0 8 -2 14 -5 14 -3 0 -5 -4 -5 -10z"/>
<path d="M1785 1280 c-3 -5 1 -10 9 -10 9 0 16 5 16 10 0 6 -4 10 -9 10 -6 0
-13 -4 -16 -10z"/>
<path d="M1971 1264 c-13 -13 -27 -24 -31 -24 -15 0 -22 -40 -11 -54 14 -16 4
-46 -15 -46 -8 0 -14 -8 -13 -17 0 -11 3 -13 6 -5 2 6 8 10 13 7 4 -3 15 6 24
20 9 14 14 25 11 25 -3 0 -1 9 5 21 9 15 15 18 24 9 8 -5 22 -8 32 -4 18 5 18
5 1 -6 -9 -6 -14 -16 -11 -22 4 -7 2 -8 -4 -4 -7 4 -17 4 -23 0 -8 -4 -7 -9 2
-15 10 -6 7 -10 -11 -18 -14 -5 -20 -10 -14 -10 7 -1 9 -13 7 -28 -3 -21 -2
-24 6 -13 5 9 11 22 13 30 2 8 13 23 26 33 12 10 20 22 17 27 -3 5 -1 11 5 15
6 4 8 10 5 15 -3 4 2 13 10 20 20 16 19 35 -2 51 -15 11 -16 11 -5 -1 6 -8 12
-21 12 -29 0 -10 -6 -7 -19 8 -11 12 -22 18 -25 13 -3 -6 1 -13 9 -16 13 -5
13 -8 -2 -26 -17 -19 -19 -19 -30 -3 -7 9 -13 12 -13 7 0 -5 -10 -10 -22 -11
l-23 -2 24 20 c12 10 27 17 31 14 8 -5 25 33 18 40 -2 2 -14 -7 -27 -21z"/>
<path d="M1927 1273 c-4 -3 -7 -11 -7 -17 0 -6 5 -5 12 2 6 6 9 14 7 17 -3 3
-9 2 -12 -2z"/>
<path d="M2107 1273 c-4 -3 -7 -11 -7 -17 0 -6 5 -5 12 2 6 6 9 14 7 17 -3 3
-9 2 -12 -2z"/>
<path d="M2120 1245 c-7 -8 -9 -15 -6 -15 4 0 14 7 22 15 9 8 11 15 6 15 -5 0
-15 -7 -22 -15z"/>
<path d="M2175 1250 c3 -5 -3 -10 -14 -10 -12 0 -21 -5 -21 -11 0 -5 5 -7 10
-4 6 3 15 3 21 -1 8 -5 8 -8 0 -14 -7 -3 -14 -20 -17 -35 l-5 -29 21 27 c12
15 19 35 16 44 -5 15 1 18 28 20 26 2 35 -2 39 -17 6 -24 37 -27 37 -4 0 13
-3 14 -14 5 -12 -10 -13 -9 -9 7 6 26 -8 33 -46 22 -19 -5 -31 -5 -31 1 0 5
-5 9 -11 9 -5 0 -7 -4 -4 -10z"/>
<path d="M1790 1220 c0 -5 7 -7 15 -4 8 4 15 8 15 10 0 2 -7 4 -15 4 -8 0 -15
-4 -15 -10z"/>
<path d="M2066 1222 c-3 -5 -7 -21 -10 -37 -3 -16 -11 -32 -18 -37 -10 -6 -8
-8 5 -8 9 0 18 3 18 8 1 4 3 18 4 31 1 13 8 27 15 31 8 5 9 10 2 14 -6 3 -13
3 -16 -2z"/>
<path d="M2223 1210 c-3 -11 -8 -18 -12 -16 -4 3 -12 -4 -19 -15 -7 -11 -8
-19 -2 -19 5 0 10 5 10 11 0 5 5 7 10 4 15 -9 -8 -35 -25 -29 -17 7 -29 -12
-14 -22 8 -5 9 -3 4 6 -6 10 -4 12 8 7 9 -3 23 1 32 9 8 9 15 11 15 6 0 -16
-42 -47 -64 -47 -12 0 -25 -9 -31 -22 -5 -12 -17 -21 -27 -20 -22 2 -24 23 -3
34 10 6 11 13 5 23 -7 11 -10 11 -10 2 0 -7 -4 -11 -9 -8 -12 8 -41 -4 -41
-16 0 -6 7 -8 15 -4 10 3 15 -1 15 -12 0 -10 6 -24 13 -31 10 -11 8 -11 -10
-2 -27 14 -36 14 -28 1 3 -5 1 -10 -4 -10 -6 0 -11 4 -11 9 0 5 -11 4 -25 -2
-14 -7 -25 -16 -25 -20 0 -5 -4 -5 -10 -2 -6 4 -4 16 6 31 9 13 12 24 7 24
-10 0 -38 -50 -35 -62 1 -5 -2 -8 -6 -8 -15 0 -11 -38 5 -44 12 -5 13 -3 5 6
-7 9 -6 19 4 32 8 11 14 17 14 14 0 -4 11 -1 25 6 14 7 42 11 64 9 33 -3 43 1
70 27 17 18 31 26 31 18 0 -10 2 -10 9 1 8 12 12 13 25 1 9 -7 19 -10 23 -6 3
3 0 6 -7 6 -9 0 -7 5 6 15 14 10 15 14 5 15 -12 0 -12 3 -3 12 10 10 15 10 22
-2 7 -12 12 -12 22 -2 9 9 9 12 -5 12 -23 0 -21 12 3 30 27 19 25 25 -7 28
-19 1 -24 -1 -14 -7 10 -6 10 -10 1 -16 -20 -12 -32 9 -21 38 6 15 8 27 5 27
-3 0 -8 -9 -11 -20z m-3 -104 c0 -3 -4 -8 -10 -11 -5 -3 -10 -1 -10 4 0 6 5
11 10 11 6 0 10 -2 10 -4z"/>
<path d="M780 1210 c-12 -8 -10 -10 8 -10 13 0 20 4 17 10 -7 12 -6 12 -25 0z"/>
<path d="M2114 1195 c9 -14 12 -25 7 -25 -6 0 -8 -8 -5 -17 3 -10 8 -24 10
-32 4 -11 8 -11 16 -3 8 8 8 15 -1 26 -9 11 -10 20 -1 36 13 25 4 42 -10 20
-8 -13 -10 -12 -10 3 0 9 -5 17 -11 17 -7 0 -5 -10 5 -25z"/>
<path d="M1808 1199 c-11 -6 -15 -16 -11 -26 5 -12 3 -14 -7 -8 -9 6 -11 4 -5
-5 6 -10 12 -7 26 11 10 13 19 27 19 32 0 9 -1 9 -22 -4z"/>
<path d="M1880 1185 c0 -8 5 -15 10 -15 6 0 10 7 10 15 0 8 -4 15 -10 15 -5 0
-10 -7 -10 -15z"/>
<path d="M795 1181 c-3 -5 0 -13 6 -17 8 -4 9 -3 5 4 -10 17 19 15 33 -2 9
-11 9 -15 0 -18 -6 -2 2 -9 17 -16 25 -11 27 -10 12 1 -10 8 -15 17 -11 20 3
4 0 13 -7 22 -14 17 -46 20 -55 6z"/>
<path d="M1135 1170 c-3 -5 4 -11 15 -15 11 -3 20 -11 20 -16 0 -5 6 -9 14 -9
7 0 19 -7 26 -15 7 -9 15 -13 18 -10 3 2 10 -2 16 -10 7 -9 16 -12 25 -6 9 6
10 11 2 15 -6 4 -11 1 -11 -6 0 -7 -7 -2 -16 10 -8 12 -20 20 -25 17 -5 -4 -9
-2 -9 3 0 14 -68 53 -75 42z"/>
<path d="M1200 1172 c0 -17 96 -76 104 -63 3 4 -9 15 -27 24 -18 9 -42 24 -54
33 -13 9 -23 12 -23 6z"/>
<path d="M1600 1160 c-9 -16 -8 -18 5 -14 8 4 15 12 15 20 0 20 -7 17 -20 -6z"/>
<path d="M1911 1164 c0 -11 3 -14 6 -6 3 7 2 16 -1 19 -3 4 -6 -2 -5 -13z"/>
<path d="M2084 1166 c-18 -20 -24 -46 -9 -40 8 3 17 15 21 26 7 24 3 30 -12
14z"/>
<path d="M1660 1156 c0 -9 5 -16 10 -16 6 0 10 4 10 9 0 6 -4 13 -10 16 -5 3
-10 -1 -10 -9z"/>
<path d="M1100 1152 c0 -4 9 -13 20 -20 22 -13 27 -3 8 16 -14 14 -28 16 -28
4z"/>
<path d="M2653 1137 c-31 -14 -39 -44 -17 -68 19 -21 59 -25 70 -7 5 8 0 9
-15 5 -43 -11 -65 15 -43 50 10 16 52 5 52 -13 0 -7 4 -15 9 -18 15 -10 0 32
-17 47 -13 11 -23 12 -39 4z"/>
<path d="M1606 1132 c-7 -11 21 -45 33 -38 3 3 18 -12 31 -32 13 -20 39 -56
57 -79 18 -23 33 -47 33 -54 0 -7 6 -5 14 6 13 18 11 21 -14 36 -33 21 -52 46
-27 36 12 -4 17 -1 17 9 0 10 -6 14 -15 10 -18 -7 -18 1 0 34 9 18 10 29 3 37
-17 21 -23 15 -22 -19 2 -48 -9 -70 -16 -33 -4 18 -11 29 -20 27 -11 -3 -11 0
1 14 12 16 12 17 -3 11 -17 -6 -35 7 -21 16 5 2 2 2 -6 0 -7 -2 -19 4 -26 13
-8 11 -14 13 -19 6z"/>
<path d="M1686 1125 c-3 -8 -1 -15 4 -15 13 0 22 18 11 24 -5 3 -11 -1 -15 -9z"/>
<path d="M1860 1131 c0 -6 4 -11 9 -11 4 0 7 -13 5 -30 -2 -16 1 -30 6 -30 5
0 6 -8 3 -17 -6 -15 -5 -16 9 -3 9 8 12 17 8 20 -5 3 -10 21 -12 39 -3 31 -28
59 -28 32z"/>
<path d="M1046 1122 c-5 -9 52 -47 60 -40 2 3 -9 14 -26 26 -16 12 -31 18 -34
14z"/>
<path d="M2001 1108 c-8 -13 -8 -18 0 -18 6 0 8 -8 4 -19 -5 -18 -3 -18 19 -8
25 11 25 12 6 21 -11 5 -20 13 -20 18 0 5 4 7 9 4 5 -3 14 1 21 9 9 11 8 14
-8 12 -11 0 -25 -9 -31 -19z"/>
<path d="M1168 1114 c-8 -8 3 -44 13 -44 5 0 9 5 9 12 0 9 3 9 12 0 7 -7 19
-12 27 -12 22 0 -19 29 -42 30 -10 0 -15 5 -12 10 7 11 2 14 -7 4z"/>
<path d="M552 1095 c-10 -12 -10 -19 0 -35 16 -25 20 -25 43 0 15 16 15 22 5
35 -15 19 -31 19 -48 0z m38 -21 c0 -17 -22 -14 -28 4 -2 7 3 12 12 12 9 0 16
-7 16 -16z"/>
<path d="M1123 1096 c0 -8 6 -12 14 -9 7 3 13 9 13 14 0 5 -6 9 -13 9 -8 0
-14 -6 -14 -14z"/>
<path d="M1924 1094 c3 -9 6 -19 6 -22 0 -9 20 21 20 31 0 4 -7 7 -16 7 -11 0
-14 -5 -10 -16z"/>
<path d="M990 1090 c-10 -7 -11 -10 -2 -11 27 -3 31 -4 38 -11 11 -12 44 -9
44 3 0 6 -7 9 -15 6 -8 -4 -17 -1 -21 5 -4 7 -3 8 4 4 7 -4 12 -2 12 3 0 14
-40 14 -60 1z"/>
<path d="M1330 1085 c29 -17 22 -19 -14 -5 -16 6 -27 6 -31 0 -4 -6 0 -10 8
-10 8 0 17 -10 20 -21 4 -15 11 -20 21 -16 9 4 16 2 16 -2 0 -5 9 -7 20 -4 11
3 20 9 20 14 0 5 5 9 11 9 5 0 7 -4 4 -10 -7 -12 2 -12 30 0 18 8 18 9 2 9
-10 1 -15 6 -12 11 8 13 4 13 -36 -4 -21 -8 -42 -10 -54 -5 -20 8 -20 8 0 10
11 1 25 3 30 4 6 2 15 3 20 4 12 2 -53 31 -69 31 -6 -1 0 -7 14 -15z"/>
<path d="M1480 1064 c0 -9 5 -12 12 -8 7 5 8 3 3 -6 -6 -10 -4 -12 9 -7 13 5
15 3 7 -11 -6 -12 -6 -23 1 -33 8 -11 9 -11 5 3 -4 10 1 19 11 23 9 3 18 2 20
-3 1 -5 9 -18 17 -28 13 -17 14 -18 15 -1 0 9 -4 17 -8 17 -5 0 -14 10 -21 23
-15 29 -71 53 -71 31z"/>
<path d="M1608 1073 c24 -10 12 -22 -14 -13 -33 13 -47 13 -39 0 3 -5 16 -10
28 -10 20 0 20 0 1 -15 -19 -15 -19 -16 1 -13 32 5 56 30 43 45 -6 7 -16 13
-22 12 -7 0 -6 -2 2 -6z"/>
<path d="M1130 1063 c8 -3 23 -12 33 -21 9 -8 17 -11 17 -6 0 17 -23 34 -44
33 -15 0 -17 -2 -6 -6z"/>
<path d="M2162 1049 c-18 -12 -31 -24 -28 -26 5 -5 66 35 66 43 0 6 -3 5 -38
-17z"/>
<path d="M1080 1050 c0 -5 8 -10 18 -10 10 0 23 -5 29 -11 6 -6 17 -9 24 -7 8
3 -1 12 -20 21 -39 20 -51 21 -51 7z"/>
<path d="M1190 1049 c0 -5 5 -7 10 -4 6 3 10 8 10 11 0 2 -4 4 -10 4 -5 0 -10
-5 -10 -11z"/>
<path d="M1225 1040 c-8 -24 2 -43 18 -33 8 4 7 1 -1 -9 -11 -14 -10 -17 7
-23 12 -3 21 -11 21 -16 0 -5 7 -9 16 -9 8 0 12 5 9 11 -4 5 1 19 10 29 13 14
14 20 3 26 -7 4 -10 3 -5 -1 9 -10 -22 -47 -34 -39 -5 3 -2 13 8 22 16 16 15
17 -15 20 -18 2 -32 7 -32 12 0 12 29 20 35 10 8 -13 35 -13 35 1 0 5 -4 7
-10 4 -5 -3 -10 -1 -10 4 0 20 -48 12 -55 -9z"/>
<path d="M1920 1045 c-14 -8 -23 -15 -20 -15 30 -7 38 -5 48 11 14 22 6 24
-28 4z"/>
<path d="M1637 1043 c-3 -5 -8 -23 -12 -40 -8 -39 10 -45 19 -7 5 17 12 24 21
20 18 -7 19 6 3 22 -14 14 -25 15 -31 5z"/>
<path d="M1455 1030 c-3 -5 -12 -7 -19 -4 -8 3 -17 1 -20 -5 -4 -6 -13 -8 -20
-5 -7 3 -21 -2 -30 -11 -14 -15 -16 -15 -16 -1 0 9 -5 16 -11 16 -5 0 -7 -5
-4 -10 3 -6 -1 -17 -9 -26 -21 -20 -20 -43 2 -61 16 -14 16 -14 0 -9 -12 3
-18 0 -18 -9 0 -18 5 -19 29 -3 15 9 17 16 10 30 -6 10 -15 16 -22 12 -9 -5
-9 -4 0 6 10 11 16 11 31 -3 10 -9 21 -15 24 -11 10 9 60 -47 54 -61 -2 -7 1
-18 7 -24 9 -9 8 -11 -4 -6 -11 4 -18 0 -22 -14 -3 -14 0 -21 9 -21 8 0 14 6
14 13 0 6 5 4 11 -6 7 -12 7 -22 1 -30 -7 -8 -6 -18 4 -31 7 -10 11 -22 9 -27
-3 -4 -1 -10 5 -14 5 -3 10 -1 10 5 0 6 4 9 9 5 5 -3 13 0 17 6 5 8 3 9 -6 4
-10 -6 -12 -4 -7 9 5 13 3 17 -7 13 -10 -4 -13 1 -11 20 1 14 -5 39 -13 56 -9
17 -16 42 -17 55 -1 24 -38 60 -65 63 -8 1 7 7 34 13 27 7 51 17 52 24 1 7 0
8 -3 2 -6 -12 -63 -14 -63 -1 0 5 7 11 15 15 8 3 15 1 15 -4 0 -4 14 -2 30 6
17 9 30 20 30 25 0 12 -27 12 -35 -1z m-60 -50 c4 -6 -7 -10 -24 -10 -17 0
-31 4 -31 8 0 11 48 13 55 2z"/>
<path d="M1760 1025 c0 -8 7 -15 15 -15 8 0 15 4 15 9 0 5 -7 11 -15 15 -9 3
-15 0 -15 -9z"/>
<path d="M2002 1008 c-33 -21 -43 -34 -18 -25 8 3 29 2 46 -3 32 -9 70 4 70
24 0 5 -9 1 -20 -9 -15 -14 -23 -16 -31 -8 -6 6 -19 9 -28 6 -11 -4 -10 -1 4
10 31 24 13 28 -23 5z"/>
<path d="M1175 1011 c6 -11 3 -13 -13 -9 -28 8 -37 -6 -16 -23 12 -10 18 -9
32 4 13 14 14 19 3 29 -11 11 -12 10 -6 -1z"/>
<path d="M1858 1003 c-3 -13 -2 -26 3 -29 5 -3 9 -10 9 -15 0 -6 -4 -8 -9 -5
-14 9 -21 -20 -8 -33 9 -10 8 -16 -6 -26 -10 -7 -20 -22 -22 -32 -1 -10 -8
-17 -14 -15 -6 1 -11 -2 -11 -8 0 -18 18 -10 39 16 31 40 46 97 34 136 -8 30
-10 31 -15 11z"/>
<path d="M1201 980 c-8 -14 -21 -31 -30 -38 -10 -8 -10 -11 -2 -6 9 5 12 3 7
-5 -4 -6 -3 -18 3 -25 8 -9 7 -18 -4 -32 -15 -18 -15 -18 -9 7 13 59 -26 35
-65 -38 -21 -41 -1 -24 30 25 26 41 29 43 23 17 -4 -16 -13 -38 -22 -47 -14
-17 -12 -17 33 -2 33 12 43 19 34 25 -11 6 -11 11 -1 21 6 6 12 8 12 2 0 -5 5
-2 10 6 7 11 9 1 5 -31 -6 -48 12 -78 36 -63 9 5 10 -1 5 -20 -5 -21 -3 -27 6
-23 8 2 12 16 10 33 l-2 29 15 -25 14 -25 -1 27 c-2 25 -5 27 -38 23 -26 -2
-37 1 -37 10 0 7 6 11 14 8 7 -3 13 -1 14 3 0 5 2 16 4 25 4 24 -8 38 -35 41
-30 4 -39 14 -33 39 5 20 23 27 23 9 0 -5 7 -7 15 -4 8 4 15 11 15 16 0 6 -6
8 -14 5 -10 -4 -16 2 -18 16 -3 22 -4 22 -17 -3z m50 -123 c-1 -12 -15 -9 -19
4 -3 6 1 10 8 8 6 -3 11 -8 11 -12z"/>
<path d="M1892 973 c-1 -25 0 -26 12 -11 7 10 17 14 22 10 4 -4 2 1 -5 11 -19
24 -26 21 -29 -10z"/>
<path d="M1508 977 c-16 -6 -28 -17 -28 -24 0 -9 6 -10 26 -3 28 11 48 4 41
-14 -3 -7 5 -13 19 -14 13 -1 24 3 24 9 0 6 -7 9 -15 5 -9 -3 -15 0 -15 8 0
25 27 25 38 1 9 -20 7 -24 -16 -34 -19 -8 -40 -9 -67 -2 -22 5 -32 9 -23 10 9
1 20 6 23 11 4 7 -2 9 -19 4 -14 -3 -26 -2 -26 3 0 5 -7 10 -15 10 -19 0 -19
-5 0 -23 8 -8 12 -22 9 -32 -4 -11 -3 -13 3 -5 12 16 63 11 64 -7 0 -9 3 -10
5 -4 3 7 14 9 26 6 14 -3 19 -1 14 6 -5 8 -2 10 8 6 9 -3 16 -1 16 5 0 6 3 11
8 11 4 0 7 -16 8 -34 0 -19 -3 -33 -8 -30 -4 3 -8 1 -8 -5 0 -5 6 -12 13 -14
17 -8 -12 -27 -30 -20 -7 3 -13 0 -13 -7 0 -12 -24 -40 -35 -40 -4 0 0 11 8
24 16 23 15 23 -8 12 -26 -11 -33 -40 -14 -52 6 -3 23 5 37 18 15 14 36 28 47
32 16 5 15 3 -5 -14 l-25 -21 28 13 c16 6 26 17 23 24 -3 8 -2 15 2 18 11 7 5
107 -7 119 -6 6 -11 20 -11 30 0 14 -5 18 -20 14 -11 -3 -23 -1 -26 4 -6 11
-21 10 -56 -4z m47 -15 c-3 -3 -11 0 -18 7 -9 10 -8 11 6 5 10 -3 15 -9 12
-12z"/>
<path d="M1654 978 c-11 -17 -6 -78 8 -95 7 -9 8 -17 2 -21 -5 -4 -11 -20 -12
-35 -2 -26 0 -27 14 -13 8 9 17 27 18 41 1 14 6 28 9 32 11 10 8 23 -4 21 -6
-2 -14 3 -17 11 -3 8 0 11 7 7 6 -4 11 -3 11 3 0 5 3 18 7 28 6 17 5 17 -15
-1 -25 -22 -30 -6 -6 18 13 14 14 16 0 16 -8 0 -18 -5 -22 -12z"/>
<path d="M1978 950 c-24 -12 -38 -15 -40 -8 -6 17 -44 -7 -51 -32 -3 -11 -2
-20 3 -20 13 0 30 26 22 34 -4 4 4 6 18 5 29 -3 90 19 90 32 0 12 0 12 -42
-11z"/>
<path d="M1723 926 c2 -22 12 -43 28 -58 l25 -23 24 22 23 22 -27 7 c-19 4
-31 2 -36 -6 -6 -9 -11 -2 -15 23 -9 48 -25 57 -22 13z m71 -44 c3 -5 -1 -9
-9 -9 -8 0 -12 4 -9 9 3 4 7 8 9 8 2 0 6 -4 9 -8z"/>
<path d="M1257 933 c-4 -3 -7 -11 -7 -16 0 -6 3 -8 6 -4 9 9 36 -21 29 -33 -3
-5 -2 -10 4 -10 12 0 12 59 0 66 -5 3 -6 -3 -3 -13 5 -17 5 -17 -9 -1 -8 10
-17 15 -20 11z"/>
<path d="M1793 933 c-21 -7 -15 -26 7 -20 10 3 20 1 22 -4 2 -4 9 -5 16 0 9 5
6 10 -10 18 -13 5 -29 8 -35 6z"/>
<path d="M1374 919 c-4 -7 1 -18 11 -26 22 -16 35 -17 35 -3 0 6 -7 10 -16 10
-8 0 -13 4 -9 9 3 5 1 12 -4 15 -5 4 -13 1 -17 -5z"/>
<path d="M1350 891 c0 -6 -7 -11 -15 -11 -8 0 -15 -4 -15 -10 0 -5 9 -10 19
-10 21 0 36 26 21 35 -6 4 -10 1 -10 -4z"/>
<path d="M1497 850 c7 -44 19 -58 36 -41 10 10 9 12 -3 9 -11 -2 -14 5 -13 25
1 15 -2 25 -7 22 -4 -3 -11 1 -13 7 -3 7 -3 -3 0 -22z"/>
<path d="M1585 870 c-4 -6 -12 -7 -18 -3 -7 4 -5 -2 3 -12 14 -17 13 -18 -12
-11 -18 4 -28 2 -28 -4 0 -6 5 -8 10 -5 6 3 10 1 10 -5 0 -16 37 6 50 30 11
21 -3 29 -15 10z"/>
<path d="M1709 870 c-3 -20 -4 -25 -12 -37 -6 -9 -3 -11 7 -7 9 3 16 10 16 14
0 5 8 11 18 13 16 4 16 5 -1 6 -10 0 -15 6 -12 11 3 6 1 10 -4 10 -6 0 -12 -4
-12 -10z"/>
<path d="M1390 855 c0 -14 -3 -16 -8 -7 -9 13 -42 6 -42 -9 0 -9 57 -5 67 5 4
3 1 12 -5 18 -9 9 -12 8 -12 -7z"/>
<path d="M1283 845 c0 -8 4 -12 9 -9 4 3 8 9 8 15 0 5 -4 9 -8 9 -5 0 -9 -7
-9 -15z"/>
<path d="M1315 840 c-3 -5 -1 -10 4 -10 6 0 11 5 11 10 0 6 -2 10 -4 10 -3 0
-8 -4 -11 -10z"/>
<path d="M2100 822 c-27 -22 -23 -43 15 -68 25 -16 27 -16 50 6 29 27 29 30
13 52 -21 26 -53 30 -78 10z m60 -18 c18 -21 -9 -49 -39 -39 -23 7 -27 25 -9
43 16 16 33 15 48 -4z"/>
<path d="M1176 819 c4 -8 0 -9 -15 -4 -25 8 -28 -10 -6 -34 8 -9 25 -27 37
-41 13 -15 18 -19 12 -10 -16 22 -23 56 -14 70 6 9 13 3 24 -19 9 -17 12 -31
7 -31 -5 0 -12 6 -14 13 -4 7 -6 8 -6 1 -2 -20 28 -39 41 -26 12 12 -3 42 -37
76 -18 18 -40 22 -29 5z"/>
<path d="M960 809 c0 -5 -4 -8 -9 -5 -5 3 -14 -1 -21 -9 -15 -18 -12 -18 28
-4 18 6 29 15 26 20 -7 12 -24 11 -24 -2z"/>
<path d="M1320 805 c0 -8 5 -15 10 -15 6 0 10 7 10 15 0 8 -4 15 -10 15 -5 0
-10 -7 -10 -15z"/>
<path d="M1370 800 c0 -5 5 -10 10 -10 6 0 10 5 10 10 0 6 -4 10 -10 10 -5 0
-10 -4 -10 -10z"/>
<path d="M1674 795 c-18 -14 -18 -15 6 -11 14 3 31 5 38 5 17 1 5 21 -12 21
-7 0 -21 -7 -32 -15z"/>
<path d="M316 784 c-22 -22 -20 -50 6 -68 28 -20 31 -20 54 2 26 23 28 41 8
63 -21 23 -47 24 -68 3z m53 -23 c8 -14 7 -22 -3 -30 -18 -15 -46 -3 -46 18 0
35 33 43 49 12z"/>
<path d="M1400 785 c-6 -8 -9 -19 -5 -25 9 -15 25 -2 18 15 -4 11 -1 13 11 9
9 -3 16 -1 16 5 0 16 -25 14 -40 -4z"/>
<path d="M841 770 c-19 -11 -42 -27 -50 -36 -15 -15 -14 -15 7 -5 12 7 27 9
32 6 6 -4 9 -1 8 7 -2 7 5 12 15 12 10 -1 16 1 13 4 -3 3 -1 11 5 19 15 17 11
16 -30 -7z"/>
<path d="M951 760 c-18 -17 -39 -30 -45 -30 -6 0 -3 5 7 11 27 16 20 30 -8 17
-29 -13 -32 -24 -7 -37 12 -6 26 -2 52 15 19 13 31 24 26 24 -5 0 -3 7 4 15
19 23 8 17 -29 -15z"/>
<path d="M1120 780 c0 -8 -13 -10 -42 -5 -36 6 -40 5 -35 -10 4 -9 7 -20 8
-23 0 -4 4 2 8 12 6 16 10 14 25 -18 17 -37 26 -40 78 -27 26 6 26 6 8 29 -22
26 -40 22 -40 -10 0 -20 -1 -20 -21 3 l-21 24 26 3 c27 3 34 16 16 27 -5 3
-10 1 -10 -5z"/>
<path d="M1354 782 c5 -9 1 -15 -13 -19 -11 -3 -18 -10 -14 -16 3 -5 6 -22 5
-37 0 -21 5 -30 21 -34 12 -3 26 -1 31 4 6 6 18 10 29 10 17 0 17 2 -4 31 -16
23 -24 28 -30 17 -14 -22 -10 -31 7 -17 14 12 16 11 13 -6 -3 -13 -13 -20 -27
-21 -16 -1 -21 3 -18 12 3 8 1 14 -4 14 -6 0 -10 7 -10 15 0 8 5 15 11 15 5 0
7 -4 4 -10 -3 -5 -4 -10 -1 -10 3 0 10 9 15 19 8 14 7 22 -6 32 -13 11 -15 11
-9 1z"/>
<path d="M1752 782 c-31 -3 -33 -4 -15 -17 24 -19 40 -18 47 1 8 20 9 20 -32
16z"/>
<path d="M1800 780 c0 -5 5 -10 11 -10 5 0 7 5 4 10 -3 6 -8 10 -11 10 -2 0
-4 -4 -4 -10z"/>
<path d="M1610 761 c-19 -11 -35 -25 -35 -32 0 -7 -6 -14 -14 -17 -8 -3 -11 0
-7 7 12 18 -5 13 -39 -14 -31 -23 -34 -23 -52 -7 -10 10 -17 27 -15 40 2 12
-2 22 -8 22 -7 0 -9 -8 -5 -21 5 -15 4 -19 -4 -15 -21 13 -11 -7 15 -31 17
-15 32 -22 45 -18 11 4 33 -2 52 -14 20 -12 42 -18 55 -14 13 3 22 1 22 -6 0
-6 -6 -11 -12 -11 -7 -1 1 -9 19 -18 18 -9 77 -43 133 -75 55 -32 103 -56 108
-53 4 2 27 -9 51 -25 24 -17 46 -27 50 -24 8 9 -37 45 -58 45 -14 0 -14 2 -1
11 12 8 10 9 -9 4 -15 -5 -21 -3 -17 3 8 13 -37 24 -61 15 -10 -3 -15 -3 -11
2 4 4 -12 17 -36 29 -24 12 -41 26 -39 34 3 6 9 10 13 7 5 -3 7 7 4 22 -5 27
-4 27 10 8 11 -15 17 -17 27 -8 16 16 -44 53 -86 53 -19 0 -25 3 -17 8 9 6 5
12 -14 21 -15 6 -29 9 -32 7 -3 -3 3 -8 12 -12 9 -3 16 -11 16 -16 0 -6 -7 -7
-16 -4 -8 3 -13 2 -10 -3 3 -4 25 -14 49 -20 30 -9 43 -18 44 -32 1 -16 -3
-18 -25 -14 -15 2 -28 9 -30 15 -2 5 -18 10 -35 11 -25 0 -28 2 -13 8 17 6 15
10 -15 29 -23 14 -36 17 -40 10 -5 -8 -12 -6 -24 5 -9 10 -22 17 -28 17 -8 0
-7 4 1 12 9 9 15 9 24 0 7 -7 21 -12 33 -12 12 0 27 -6 34 -12 11 -11 13 -10
9 2 -2 8 -15 17 -29 21 -13 4 -18 7 -10 8 11 1 11 4 1 16 -16 19 -7 19 30 0
17 -9 30 -13 30 -10 0 3 9 1 20 -5 16 -9 18 -8 14 5 -4 8 -10 15 -16 15 -5 0
-6 5 -2 12 5 8 11 6 19 -5 15 -21 29 -22 21 -2 -3 8 -1 15 5 15 6 0 7 5 4 10
-3 6 -11 10 -16 10 -6 0 -8 -4 -5 -9 3 -5 -4 -9 -17 -8 -12 0 -35 -3 -52 -6
l-30 -7 28 12 c15 7 27 15 27 20 0 10 1 11 -40 -11z m250 -261 c8 -5 11 -10 5
-10 -5 0 -17 5 -25 10 -8 5 -10 10 -5 10 6 0 17 -5 25 -10z"/>
<path d="M1845 770 c-3 -5 3 -18 14 -29 11 -11 18 -27 15 -34 -9 -24 18 -36
50 -22 l28 12 -36 23 c-21 12 -35 25 -32 27 3 3 20 -4 39 -16 19 -11 38 -21
43 -21 9 0 -98 69 -108 70 -4 0 -9 -4 -13 -10z m30 -10 c3 -5 2 -10 -4 -10 -5
0 -13 5 -16 10 -3 6 -2 10 4 10 5 0 13 -4 16 -10z m25 -62 c0 -16 -3 -19 -11
-11 -6 6 -8 16 -5 22 11 17 16 13 16 -11z"/>
<path d="M1820 749 c0 -8 9 -25 20 -39 16 -20 20 -22 20 -7 0 9 -5 17 -11 17
-5 0 -8 4 -5 9 3 5 -1 14 -9 21 -12 10 -15 10 -15 -1z"/>
<path d="M1267 734 c-27 -15 -29 -34 -2 -34 9 0 12 6 9 15 -4 8 -1 15 5 15 6
0 11 -4 11 -10 0 -5 5 -10 10 -10 6 0 10 9 10 20 0 24 -6 24 -43 4z"/>
<path d="M1730 740 c0 -6 6 -10 13 -10 8 0 8 -3 -2 -9 -12 -8 -12 -13 3 -35 9
-14 21 -26 26 -26 4 0 16 -8 26 -17 11 -12 19 -14 21 -6 6 16 42 4 53 -18 6
-11 17 -16 28 -13 16 5 16 5 -1 -6 -9 -6 -22 -8 -29 -4 -7 5 -8 3 -3 -5 4 -7
21 -21 39 -32 17 -10 25 -19 17 -19 -9 0 -4 -9 12 -24 14 -13 23 -27 19 -31
-4 -3 6 -1 22 5 16 6 32 7 35 2 9 -13 41 -22 41 -12 0 6 -4 10 -10 10 -5 0
-25 11 -45 24 l-35 24 28 10 c16 5 37 6 52 1 24 -9 24 -8 5 6 -11 9 -30 13
-41 11 -22 -6 -49 15 -37 28 4 4 0 4 -9 1 -9 -4 -23 -2 -30 4 -7 7 -22 19 -33
27 -19 15 -16 15 30 -1 11 -4 16 -3 10 2 -5 4 -11 15 -13 23 -2 8 8 3 23 -12
27 -30 49 -35 61 -16 5 7 2 9 -7 6 -8 -3 -23 0 -34 8 -18 14 -18 14 0 27 12
10 15 16 6 21 -6 4 -14 1 -17 -8 -3 -8 -12 -12 -20 -9 -7 3 -17 -2 -20 -11 -5
-12 -10 -13 -26 -5 -16 8 -19 8 -13 -1 5 -8 3 -11 -4 -9 -7 3 -12 9 -12 14 0
14 -30 45 -43 45 -6 -1 0 -10 13 -20 l23 -20 -35 0 c-41 0 -58 17 -33 35 15
11 13 15 -19 33 -19 12 -35 17 -35 12z m37 -45 c-15 -16 -19 -13 -11 9 3 9 10
13 15 10 5 -3 3 -11 -4 -19z m166 -129 c-3 -4 4 -5 15 -2 11 4 23 2 27 -3 4
-7 -1 -8 -11 -4 -12 4 -15 3 -10 -5 4 -7 1 -12 -6 -12 -7 -1 0 -8 15 -16 16
-9 26 -18 23 -21 -8 -8 -57 26 -51 36 2 5 -7 17 -21 26 -20 13 -23 19 -14 25
14 9 41 -10 33 -24z"/>
<path d="M1784 738 c-4 -6 -3 -8 3 -5 6 4 14 0 17 -9 4 -9 9 -15 11 -12 8 7
-5 38 -15 38 -5 0 -12 -5 -16 -12z"/>
<path d="M249 719 l-20 -20 22 -20 c28 -24 31 -24 47 1 9 15 10 26 2 40 -14
25 -25 25 -51 -1z m36 -29 c-5 -8 -11 -8 -17 -2 -6 6 -7 16 -3 22 5 8 11 8 17
2 6 -6 7 -16 3 -22z"/>
<path d="M960 729 c0 -5 5 -7 10 -4 6 3 10 8 10 11 0 2 -4 4 -10 4 -5 0 -10
-5 -10 -11z"/>
<path d="M850 726 c0 -2 7 -7 16 -10 8 -3 12 -2 9 4 -6 10 -25 14 -25 6z"/>
<path d="M993 723 c-7 -3 -13 -11 -13 -19 0 -11 -7 -13 -27 -8 l-28 7 19 -22
c18 -19 21 -20 40 -6 12 8 28 18 36 22 19 9 44 33 33 33 -4 0 -15 -4 -23 -10
-8 -5 -17 -5 -20 -1 -3 4 -11 6 -17 4z m-2 -36 c-10 -9 -11 -8 -5 6 3 10 9 15
12 12 3 -3 0 -11 -7 -18z"/>
<path d="M1055 700 c-3 -5 1 -10 9 -10 8 0 18 5 21 10 3 6 -1 10 -9 10 -8 0
-18 -4 -21 -10z"/>
<path d="M1710 696 c0 -8 5 -18 10 -21 6 -3 10 1 10 9 0 8 -4 18 -10 21 -5 3
-10 -1 -10 -9z"/>
<path d="M782 675 c-10 -21 -9 -23 5 -18 13 5 15 1 10 -25 -4 -17 -2 -34 3
-37 6 -3 10 1 10 9 0 18 16 29 30 21 7 -4 1 -16 -15 -31 -14 -13 -21 -24 -16
-24 6 0 20 9 31 20 12 12 25 18 29 15 5 -3 4 5 -2 18 -8 17 -17 22 -34 19 -22
-4 -28 4 -24 35 3 23 -16 22 -27 -2z"/>
<path d="M1128 689 c-20 -13 1 -30 23 -19 11 6 24 8 29 5 14 -9 12 -43 -2 -48
-7 -2 -10 -7 -7 -11 10 -11 37 4 42 24 3 11 0 21 -7 24 -6 2 -1 8 12 11 25 8
30 22 7 22 -8 0 -15 -3 -15 -7 0 -4 -7 -7 -15 -7 -8 0 -15 4 -15 8 0 9 -36 8
-52 -2z"/>
<path d="M1307 683 c5 -12 3 -14 -8 -8 -17 11 -53 14 -42 4 4 -4 22 -10 40
-14 28 -6 31 -4 26 14 -3 12 -9 21 -14 21 -5 0 -5 -7 -2 -17z"/>
<path d="M1985 675 c0 -19 10 -32 43 -50 l43 -24 -21 29 c-12 17 -18 30 -13
30 12 -1 40 -24 41 -35 3 -21 33 -45 54 -45 19 0 20 -2 8 -10 -13 -8 -13 -10
1 -10 9 0 22 -7 29 -15 7 -9 19 -14 27 -11 7 3 13 1 13 -5 0 -7 11 -9 28 -5
26 6 26 6 8 -9 -25 -19 -34 -19 -52 0 -9 8 -23 15 -32 15 -13 0 -12 -3 6 -16
12 -8 22 -20 22 -25 0 -6 -12 -1 -26 10 -14 11 -31 18 -38 15 -7 -3 -19 2 -26
11 -13 16 -30 20 -30 7 0 -8 67 -47 81 -47 4 0 11 -3 15 -7 11 -12 46 -10 39
2 -3 6 -2 10 4 10 5 0 12 -4 15 -9 3 -5 18 -11 33 -14 26 -5 26 -4 8 9 -10 8
-23 14 -29 14 -5 0 -7 3 -4 6 3 3 25 -4 48 -16 52 -27 65 -18 16 11 -20 11
-34 25 -31 29 5 7 -17 24 -75 58 l-25 14 25 -21 c20 -16 21 -21 8 -21 -20 0
-50 28 -43 40 3 5 -5 14 -17 20 -22 11 -22 10 -4 -4 11 -9 16 -16 10 -16 -15
0 -39 19 -39 31 0 6 -19 22 -43 36 -27 16 -42 21 -40 12 2 -7 -6 -14 -17 -16
-11 -1 -15 0 -9 3 7 3 10 14 7 24 -7 28 -19 25 -18 -5z"/>
<path d="M756 673 c-6 -14 -5 -15 5 -6 7 7 10 15 7 18 -3 3 -9 -2 -12 -12z"/>
<path d="M1075 679 c-4 -5 -10 -7 -13 -5 -4 2 -16 -10 -25 -27 l-18 -32 26 28
c15 16 33 26 41 23 7 -3 16 -1 19 3 3 5 -2 11 -10 15 -8 3 -17 1 -20 -5z"/>
<path d="M1780 680 c0 -6 7 -10 15 -10 8 0 15 2 15 4 0 2 -7 6 -15 10 -8 3
-15 1 -15 -4z"/>
<path d="M925 670 c3 -5 8 -10 11 -10 2 0 4 5 4 10 0 6 -5 10 -11 10 -5 0 -7
-4 -4 -10z"/>
<path d="M1395 671 c-6 -5 -19 -11 -30 -14 -19 -4 -19 -5 1 -6 12 0 27 6 34
14 14 16 10 20 -5 6z"/>
<path d="M1422 668 c3 -7 13 -15 24 -17 16 -3 17 -1 5 13 -16 19 -34 21 -29 4z"/>
<path d="M1015 660 c-4 -6 -13 -9 -21 -6 -19 7 -17 -14 4 -46 l18 -27 52 35
c28 20 52 37 52 38 0 12 -46 -6 -68 -27 -15 -15 -31 -27 -35 -27 -11 0 -8 35
5 48 6 6 9 14 6 17 -3 4 -9 1 -13 -5z"/>
<path d="M1143 640 c-3 -11 -10 -20 -15 -20 -5 0 -6 6 -2 13 4 7 3 8 -2 4 -5
-5 -9 -14 -9 -20 0 -7 -4 -13 -10 -13 -5 -1 -9 2 -7 8 1 5 -2 7 -8 3 -6 -3 -8
-10 -5 -15 3 -4 -7 -11 -23 -15 l-27 -7 25 -13 c14 -7 29 -10 35 -7 5 3 -1 9
-15 13 -23 7 -23 7 7 8 20 1 37 9 46 21 8 11 17 17 22 12 5 -4 5 -1 0 7 -5 9
-2 19 10 28 18 12 18 13 1 13 -10 0 -20 -9 -23 -20z"/>
<path d="M1230 651 c0 -9 42 -16 54 -8 2 1 12 -6 22 -15 16 -14 30 -15 81 -9
84 10 91 20 9 14 -45 -4 -70 -2 -81 7 -20 16 -85 25 -85 11z"/>
<path d="M942 638 c-7 -7 -12 -18 -12 -25 0 -7 -4 -13 -10 -13 -5 0 -10 -4
-10 -10 0 -19 21 -10 30 13 7 17 9 18 9 5 1 -10 8 -18 16 -18 8 0 15 -4 15 -9
0 -4 -11 -6 -25 -3 -28 5 -32 -3 -11 -24 15 -15 37 -19 34 -6 0 4 2 15 6 24 5
11 1 25 -13 39 -11 12 -18 26 -15 31 8 12 0 10 -14 -4z"/>
<path d="M1236 621 c-3 -5 0 -11 7 -13 17 -7 38 2 31 13 -7 12 -31 12 -38 0z"/>
<path d="M2010 615 c0 -2 10 -10 23 -16 20 -11 21 -11 8 4 -13 16 -31 23 -31
12z"/>
<path d="M1183 600 c-16 -7 -23 -18 -23 -37 0 -32 -29 -56 -51 -43 -16 11 -8
21 18 23 14 1 19 6 15 20 -4 16 -13 10 -58 -34 -30 -29 -54 -57 -54 -61 0 -4
12 -7 26 -6 20 2 23 5 12 12 -13 8 -12 12 4 28 20 20 33 24 22 6 -5 -8 -2 -9
9 -5 10 3 17 2 17 -4 0 -5 10 -1 22 10 11 11 24 18 28 16 15 -9 44 24 46 54 2
33 1 34 -33 21z m20 -30 c-8 -30 -29 -43 -30 -19 -1 10 3 19 8 19 6 0 7 5 4
10 -3 6 0 10 8 10 10 0 13 -7 10 -20z"/>
<path d="M1800 595 c-11 -13 -8 -17 19 -28 19 -7 29 -17 26 -25 -2 -7 0 -10 5
-7 5 3 19 1 30 -5 31 -16 24 -2 -19 41 -44 44 -44 44 -61 24z"/>
<path d="M1985 593 c12 -13 105 -36 113 -28 9 9 -4 15 -39 19 -19 2 -45 7 -59
11 -17 5 -22 4 -15 -2z"/>
<path d="M1780 563 c6 -14 19 -23 33 -22 12 0 16 3 10 6 -7 2 -15 3 -17 1 -3
-2 -12 6 -21 17 -16 20 -16 19 -5 -2z"/>
<path d="M830 557 c0 -5 7 -7 14 -4 23 9 31 -31 11 -53 -15 -17 -15 -18 2 -16
27 2 34 19 21 54 -8 20 -18 30 -30 29 -10 -1 -18 -5 -18 -10z"/>
<path d="M988 535 c-5 -26 16 -60 31 -50 17 10 13 28 -4 21 -11 -4 -15 2 -14
22 0 15 3 21 6 13 5 -11 7 -11 14 0 6 10 9 10 9 2 0 -8 7 -10 18 -6 15 6 16 5
2 -13 -14 -18 -14 -18 3 -5 23 18 5 40 -33 39 -21 -1 -29 -7 -32 -23z"/>
<path d="M2012 533 c2 -10 17 -24 33 -32 17 -8 32 -18 33 -23 2 -4 13 -8 25
-7 l22 0 -22 11 c-13 6 -23 14 -23 19 0 4 -16 17 -36 28 -32 19 -35 19 -32 4z"/>
<path d="M2106 539 c3 -5 11 -9 19 -9 8 0 16 4 19 9 3 5 -5 9 -19 9 -14 0 -22
-4 -19 -9z"/>
<path d="M820 525 c7 -8 17 -15 22 -15 6 0 5 7 -2 15 -7 8 -17 15 -22 15 -6 0
-5 -7 2 -15z"/>
<path d="M2336 476 c3 -8 -9 -22 -30 -36 -20 -12 -36 -26 -36 -31 0 -5 -7 -9
-15 -9 -21 0 -19 -13 3 -25 127 -68 132 -70 148 -53 20 20 10 62 -13 54 -8 -3
-21 -6 -29 -6 -8 0 -14 -4 -14 -10 0 -5 9 -10 19 -10 10 0 21 -7 25 -15 7 -20
5 -20 -61 16 -72 39 -70 36 -47 54 25 19 40 19 23 -1 -10 -13 -10 -17 1 -24 7
-4 20 -5 29 -2 14 6 14 7 -1 10 -10 2 -18 8 -18 13 0 5 12 7 28 4 20 -4 22 -3
8 3 -12 5 -16 11 -9 15 14 9 40 -1 75 -26 26 -19 65 -17 53 2 -3 6 -13 7 -22
4 -12 -5 -14 -3 -8 7 5 8 4 11 -2 7 -6 -4 -27 2 -49 13 -33 17 -39 18 -47 5
-4 -8 -13 -15 -20 -15 -7 0 0 11 14 24 25 21 25 23 8 34 -15 9 -17 9 -13 -2z"/>
<path d="M1980 470 c0 -5 9 -10 21 -10 11 0 18 -4 14 -9 -7 -12 29 -33 39 -24
12 12 6 23 -24 38 -34 17 -50 19 -50 5z"/>
<path d="M2073 456 c15 -12 15 -15 2 -26 -8 -7 -13 -16 -10 -20 11 -17 -13
-19 -36 -2 -25 18 -58 27 -43 12 5 -5 37 -23 72 -40 35 -17 66 -38 69 -46 3
-9 12 -12 25 -8 18 5 18 4 8 -16 -7 -12 -8 -20 -2 -16 5 3 13 -1 16 -10 3 -8
11 -14 18 -13 7 1 20 1 28 0 12 -1 12 -3 2 -10 -11 -7 -10 -9 3 -14 9 -4 14
-3 11 2 -7 10 19 23 28 14 3 -4 0 -13 -6 -22 -7 -9 -8 -13 -4 -9 5 4 15 3 23
-3 7 -6 13 -8 13 -4 0 4 7 2 15 -5 23 -19 18 3 -7 30 -13 14 -23 29 -23 34 0
5 -8 14 -19 20 -14 8 -20 8 -23 -1 -7 -21 -29 -15 -47 12 -19 29 -11 33 16 9
14 -14 20 -14 33 -4 19 16 19 21 -1 46 -15 18 -15 18 -5 -3 14 -29 14 -33 -3
-27 -8 3 -16 14 -19 25 -3 11 -25 28 -52 40 -26 11 -44 23 -42 26 3 2 15 0 26
-7 40 -21 21 -2 -23 24 -47 27 -73 35 -43 12z m33 -25 c-3 -4 8 -23 24 -41 17
-19 30 -29 30 -23 0 5 7 10 15 10 20 0 19 -6 -7 -29 -21 -18 -23 -18 -35 -2
-7 9 -10 20 -8 25 3 4 0 11 -6 15 -8 4 -9 3 -5 -4 10 -17 -7 -15 -30 4 -18 14
-18 15 6 9 24 -6 24 -5 6 9 -18 14 -15 36 5 36 6 0 8 -4 5 -9z m164 -146 c0
-2 -7 -5 -15 -9 -9 -3 -15 0 -15 9 0 9 6 12 15 9 8 -4 15 -7 15 -9z m20 -45
c0 -5 -2 -10 -4 -10 -3 0 -8 5 -11 10 -3 6 -1 10 4 10 6 0 11 -4 11 -10z"/>
<path d="M2152 449 c2 -7 21 -23 41 -36 29 -18 37 -20 37 -8 0 8 -18 24 -41
36 -26 13 -40 16 -37 8z"/>
<path d="M2230 444 c0 -21 19 -27 35 -11 12 13 11 15 -10 20 -16 3 -25 0 -25
-9z"/>
<path d="M2001 387 c2 -1 13 -9 24 -17 19 -14 19 -14 6 3 -7 9 -18 17 -24 17
-6 0 -8 -1 -6 -3z"/>
<path d="M2430 360 c0 -5 5 -10 10 -10 6 0 10 5 10 10 0 6 -4 10 -10 10 -5 0
-10 -4 -10 -10z"/>
<path d="M2437 332 c-32 -34 -33 -43 -7 -60 13 -7 20 -8 20 -2 0 6 -7 13 -15
16 -12 5 -13 9 -4 21 10 11 14 11 20 1 7 -10 9 -8 9 5 0 10 4 16 9 13 13 -9
42 4 35 16 -3 5 -12 7 -19 4 -8 -3 -15 0 -17 5 -2 6 -16 -3 -31 -19z"/>
<path d="M2070 346 c0 -2 7 -9 15 -16 9 -7 15 -8 15 -2 0 5 -7 12 -15 16 -8 3
-15 4 -15 2z"/>
<path d="M1692 328 c-18 -18 -15 -31 10 -47 19 -12 23 -11 35 5 7 10 12 25 11
34 -4 19 -39 25 -56 8z m36 -19 c-2 -6 -8 -10 -13 -10 -5 0 -11 4 -13 10 -2 6
4 11 13 11 9 0 15 -5 13 -11z"/>
<path d="M2275 330 c-3 -5 5 -25 17 -44 24 -37 48 -54 48 -34 0 16 44 -43 47
-64 3 -21 -10 -24 -26 -4 -9 11 -9 15 0 18 7 2 6 8 -4 16 -12 10 -16 10 -20
-2 -9 -22 30 -57 58 -52 16 3 22 0 19 -8 -3 -7 1 -18 9 -25 11 -9 17 -8 26 3
9 10 8 16 -4 26 -8 7 -15 18 -15 25 0 7 -12 21 -27 31 -30 19 -54 46 -47 53 2
3 18 -9 35 -25 24 -23 29 -25 24 -9 -7 20 -6 20 9 1 9 -11 16 -16 16 -10 0 5
4 4 8 -2 4 -6 21 -14 37 -18 37 -9 25 3 -35 35 -25 13 -47 27 -50 30 -15 18
-120 68 -125 59z m52 -33 c12 -11 20 -24 17 -28 -8 -13 -24 -11 -24 3 0 6 -10
23 -22 36 -25 28 -5 20 29 -11z m93 -107 c0 -5 -7 -7 -15 -4 -8 4 -15 8 -15
10 0 2 7 4 15 4 8 0 15 -4 15 -10z"/>
<path d="M439 242 c-19 -8 -18 -50 1 -62 33 -21 66 30 38 58 -13 13 -16 14
-39 4z m31 -26 c0 -16 -18 -31 -27 -22 -8 8 5 36 17 36 5 0 10 -6 10 -14z"/>
<path d="M2550 241 c0 -14 31 -22 54 -15 21 7 21 7 1 15 -28 11 -55 11 -55 0z"/>
<path d="M2520 220 c0 -5 9 -10 21 -10 11 0 17 5 14 10 -3 6 -13 10 -21 10 -8
0 -14 -4 -14 -10z"/>
<path d="M2645 210 c-3 -5 -13 -6 -22 -3 -11 4 -14 3 -9 -5 9 -16 18 -15 42 3
10 8 14 15 7 15 -6 0 -14 -4 -18 -10z"/>
<path d="M2455 190 c-4 -6 -1 -17 5 -25 9 -11 16 -12 31 -2 14 9 21 9 31 -1
15 -15 55 -16 64 0 5 8 2 9 -9 5 -10 -3 -17 -2 -17 2 0 5 -9 7 -20 4 -15 -4
-19 -2 -14 10 4 12 1 14 -15 10 -12 -3 -21 -9 -21 -14 0 -5 -5 -9 -11 -9 -5 0
-8 4 -4 9 3 5 1 12 -4 15 -5 4 -13 2 -16 -4z"/>
<path d="M235 90 c-7 -22 10 -50 30 -50 6 0 20 9 30 20 15 16 15 22 5 35 -18
22 -57 19 -65 -5z m45 -16 c0 -9 -5 -14 -12 -12 -18 6 -21 28 -4 28 9 0 16 -7
16 -16z"/>
</g>
</svg>
