<?xml version="1.0" standalone="no"?>
<!DOCTYPE svg PUBLIC "-//W3C//DTD SVG 20010904//EN"
 "http://www.w3.org/TR/2001/REC-SVG-20010904/DTD/svg10.dtd">
<svg version="1.0" xmlns="http://www.w3.org/2000/svg"
 width="200.000000pt" height="203.000000pt" viewBox="0 0 200.000000 203.000000"
 preserveAspectRatio="xMidYMid meet">
<metadata>
Created by potrace 1.10, written by Peter Selinger 2001-2011
</metadata>
<g transform="translate(0.000000,203.000000) scale(0.100000,-0.100000)"
fill="#fcfcfc" stroke="none">
<path d="M843 2010 c-10 -11 -21 -20 -25 -20 -4 0 -19 -11 -34 -25 -15 -14
-33 -25 -39 -25 -7 0 -16 -7 -19 -16 -3 -8 -10 -13 -15 -10 -4 3 -22 1 -40 -4
-19 -5 -31 -5 -31 1 0 5 7 9 15 9 8 0 15 6 15 14 0 8 6 16 13 19 6 2 2 2 -10
0 -12 -1 -37 -17 -55 -33 -18 -17 -37 -30 -44 -30 -6 0 -31 -20 -56 -45 -34
-33 -45 -51 -41 -65 5 -20 6 -19 32 5 51 51 86 75 108 75 12 0 28 7 37 15 8 8
26 15 40 15 15 0 34 9 43 20 10 11 25 20 35 20 10 0 18 5 18 11 0 5 15 16 34
24 19 8 41 21 49 29 8 8 30 19 48 24 l34 10 -48 1 c-36 1 -51 -4 -64 -19z"/>
<path d="M1033 2013 c14 -14 19 -15 26 -5 6 10 28 13 75 10 36 -1 66 -5 66 -8
0 -3 17 -5 38 -6 39 0 197 -66 185 -77 -3 -4 -1 -7 5 -7 17 0 15 15 -5 33 -29
25 -115 65 -130 60 -7 -3 -13 0 -13 6 0 7 -42 11 -132 11 -126 0 -131 -1 -115
-17z"/>
<path d="M581 1966 c-6 -8 -26 -20 -44 -27 -18 -7 -41 -23 -52 -35 -11 -11
-32 -24 -46 -27 -41 -10 -120 -89 -100 -101 5 -4 26 15 45 40 21 27 36 40 36
30 0 -20 16 -21 27 -2 9 16 140 106 154 106 5 0 9 4 9 9 0 5 8 12 18 14 11 3
8 5 -9 6 -15 0 -32 -5 -38 -13z"/>
<path d="M1260 1966 c0 -20 49 -68 61 -60 7 4 2 13 -15 23 -14 8 -26 24 -26
33 0 10 -4 18 -10 18 -5 0 -10 -6 -10 -14z"/>
<path d="M1394 1905 c15 -15 31 -24 35 -19 10 14 32 16 47 3 19 -16 18 1 -3
23 -15 17 -18 17 -34 2 -17 -15 -20 -15 -46 1 l-28 17 29 -27z"/>
<path d="M1084 1900 c-22 -9 -74 -66 -74 -81 0 -6 -15 -16 -34 -24 -36 -15
-51 -41 -40 -69 8 -21 24 -20 40 2 11 16 13 15 23 -11 6 -16 11 -33 11 -38 0
-15 -20 -10 -26 6 -9 23 -24 7 -24 -25 0 -21 -6 -29 -23 -34 -12 -3 -36 -19
-53 -35 -16 -16 -46 -32 -66 -36 l-37 -7 20 -28 c17 -22 19 -32 10 -48 -10
-18 -17 -20 -61 -15 -48 6 -50 5 -50 -19 0 -14 -3 -39 -6 -55 -5 -25 -2 -31
17 -36 35 -9 98 14 101 38 2 11 14 25 28 32 14 7 25 18 25 25 0 7 9 12 20 11
11 -2 29 2 40 8 18 9 28 3 68 -36 51 -49 58 -65 27 -65 -22 0 -27 -15 -9 -25
12 -8 46 24 51 48 2 8 -15 31 -36 49 -29 25 -38 39 -33 52 6 16 10 15 35 -8
15 -14 37 -33 49 -43 12 -10 24 -31 25 -48 4 -36 27 -58 46 -43 10 9 8 16 -10
36 -16 18 -18 24 -7 19 9 -3 21 -1 26 4 18 18 41 -2 47 -41 5 -29 10 -38 21
-34 9 4 15 0 15 -7 1 -10 5 -8 14 4 14 18 15 18 24 1 8 -15 13 -16 26 -5 37
31 51 -39 15 -78 -18 -19 -28 -21 -72 -17 -29 3 -69 12 -90 21 -43 18 -57 14
-50 -15 6 -21 -20 -29 -32 -10 -3 6 -14 10 -24 10 -10 0 -24 7 -31 15 -7 8
-20 15 -30 15 -20 0 -30 19 -30 56 0 25 -1 25 -74 21 -40 -3 -83 -10 -95 -16
-12 -7 -31 -9 -41 -6 -24 8 -90 -52 -90 -81 0 -10 -14 -28 -30 -39 -17 -11
-36 -32 -43 -47 -6 -16 -15 -28 -18 -28 -4 0 -10 -11 -13 -25 -4 -14 -11 -25
-17 -25 -6 0 -7 -5 -4 -10 4 -6 11 -8 16 -5 5 4 9 -14 9 -39 0 -25 -5 -48 -10
-51 -14 -9 -3 -46 18 -65 10 -8 25 -28 35 -43 10 -15 22 -25 27 -22 6 4 10 -3
10 -14 0 -23 32 -36 57 -23 10 6 27 6 45 0 18 -7 33 -7 41 0 6 5 29 12 50 16
33 6 37 5 37 -14 0 -15 6 -20 26 -20 14 0 24 5 22 11 -2 6 -6 9 -10 7 -3 -2
-14 5 -25 14 -15 14 -36 17 -116 15 l-98 -2 -42 45 -42 45 2 80 c1 44 2 86 2
93 1 6 10 21 21 32 12 12 18 25 15 30 -3 5 3 11 14 15 20 6 71 66 71 84 0 14
34 31 64 31 13 0 26 5 28 12 3 7 25 12 58 11 47 -1 57 -4 79 -32 14 -17 30
-31 34 -31 5 0 22 -9 38 -21 16 -11 29 -18 29 -15 0 3 11 1 25 -4 20 -7 32 -6
50 6 21 14 31 14 94 1 39 -8 71 -11 71 -6 0 20 59 -29 71 -59 7 -18 19 -38 26
-44 7 -6 13 -18 13 -28 0 -9 8 -28 19 -41 10 -13 24 -42 30 -64 7 -22 14 -46
17 -53 2 -8 9 -10 21 -4 25 12 73 37 123 64 l42 23 -4 57 c-4 59 -14 81 -26
62 -4 -6 -15 -13 -24 -17 -22 -8 -23 -23 -2 -31 8 -3 13 -2 10 2 -3 5 1 9 7 9
20 0 7 -58 -17 -79 -12 -9 -27 -17 -33 -18 -7 0 -13 -4 -13 -9 0 -5 -8 -11
-17 -14 -10 -2 -26 -8 -35 -12 -12 -5 -18 -3 -18 6 0 8 -7 28 -16 44 -9 17
-34 63 -55 104 -21 41 -45 82 -54 91 -15 16 -10 60 7 60 5 0 8 19 6 43 -3 39
-5 42 -35 45 -18 2 -33 7 -33 11 0 5 -9 11 -20 14 -11 3 -20 1 -20 -4 0 -5 -5
-9 -11 -9 -6 0 -8 8 -5 18 8 27 -38 55 -85 50 -32 -3 -39 0 -39 14 0 10 -4 18
-10 18 -5 0 -20 11 -34 25 -40 40 -67 46 -89 21 -14 -16 -17 -17 -13 -4 4 15
2 15 -29 2 -49 -20 -95 -19 -95 4 1 24 24 52 44 52 9 0 16 6 16 13 0 23 61 46
131 50 69 5 110 22 102 44 -4 9 0 11 11 7 12 -5 16 0 17 17 0 23 1 23 9 4 8
-19 9 -19 9 2 1 12 9 26 18 32 15 8 16 12 3 35 -7 15 -25 29 -38 33 -16 4 -20
8 -12 13 14 9 -4 50 -22 50 -6 0 -5 -6 3 -16 11 -14 10 -19 -9 -34 -44 -36
-22 -64 44 -53 29 5 36 3 32 -8 -3 -8 -23 -16 -49 -19 -36 -4 -40 -6 -20 -12
12 -4 20 -11 17 -17 -4 -6 -13 -8 -21 -4 -10 3 -15 -2 -15 -16 0 -12 -6 -22
-12 -23 -7 0 -17 -2 -23 -2 -5 -1 -14 -4 -20 -8 -15 -9 -80 -4 -80 6 0 5 15
14 33 20 39 13 67 59 52 86 -7 13 -4 24 15 44 14 15 25 33 25 40 0 29 56 35
65 7 3 -11 15 -23 27 -27 16 -5 18 -8 7 -16 -11 -7 -10 -8 5 -6 27 4 26 21 -1
33 -13 5 -23 16 -23 23 0 10 6 12 18 7 9 -4 28 -10 41 -13 41 -9 19 22 -25 33
-21 6 -49 16 -61 23 -25 14 -39 14 -69 2z m-57 -145 c-14 -15 -37 -9 -37 10 0
17 22 25 37 13 9 -8 9 -13 0 -23z m-262 -345 c19 -8 19 -9 -2 -9 -12 -1 -25 4
-28 9 -7 12 2 12 30 0z"/>
<path d="M1392 1864 c14 -14 21 -15 30 -6 8 8 9 12 1 12 -6 0 -20 3 -30 6 -17
7 -17 6 -1 -12z"/>
<path d="M1320 1854 c0 -9 -9 -18 -20 -21 -10 -3 -22 -13 -25 -23 -3 -11 -16
-21 -28 -23 -22 -4 -22 -4 -1 -6 12 0 27 6 34 14 7 8 19 15 27 15 7 0 16 7 19
15 4 10 13 13 25 10 13 -4 17 -1 16 12 -1 24 -47 30 -47 7z"/>
<path d="M699 1837 c-14 -24 12 -33 51 -16 41 19 38 34 -6 34 -24 0 -39 -6
-45 -18z"/>
<path d="M302 1725 c-17 -20 -29 -42 -25 -50 3 -9 -1 -15 -10 -15 -8 0 -17 -7
-21 -15 -3 -8 -15 -15 -26 -15 -11 0 -20 -5 -20 -11 0 -6 8 -8 18 -5 9 2 31 7
49 11 40 8 63 32 42 46 -10 6 -10 9 -1 9 6 0 12 6 12 14 0 7 7 19 15 26 16 13
21 40 7 40 -5 0 -22 -16 -40 -35z"/>
<path d="M811 1712 c-15 -28 -14 -41 5 -60 15 -15 15 -16 -1 -22 -9 -3 -17
-10 -17 -15 0 -6 -4 -15 -10 -22 -7 -9 0 -11 29 -6 49 8 55 18 31 59 -11 18
-17 38 -13 44 3 5 2 17 -3 27 -9 15 -11 14 -21 -5z"/>
<path d="M758 1659 c-10 -6 -18 -16 -18 -24 0 -7 -6 -15 -12 -18 -22 -7 -1
-19 21 -12 25 7 47 43 34 55 -4 5 -16 4 -25 -1z"/>
<path d="M180 1584 c11 -27 6 -44 -11 -44 -6 0 -7 6 -3 13 4 6 -4 1 -19 -13
-15 -14 -27 -33 -27 -42 0 -10 -6 -18 -14 -18 -8 0 -18 -4 -21 -10 -4 -6 1 -7
12 -3 16 5 15 3 -3 -18 -25 -29 -63 -109 -82 -174 -11 -40 -12 -355 -1 -355 7
0 10 24 8 68 -3 64 -3 67 19 65 12 -2 22 2 22 7 0 6 -10 10 -23 10 -22 0 -22
2 -16 63 15 132 22 177 30 177 5 0 9 9 9 20 0 11 4 20 9 20 5 0 11 14 15 32 3
17 17 46 31 64 14 18 25 36 25 39 0 11 25 32 47 39 18 6 19 10 9 46 -5 22 -14
40 -18 40 -4 0 -3 -12 2 -26z"/>
<path d="M260 1585 c-10 -12 -10 -19 -2 -27 14 -14 17 -11 26 20 8 25 -5 29
-24 7z"/>
<path d="M1502 1218 c-18 -18 -15 -40 15 -86 30 -46 43 -53 43 -22 0 11 -5 20
-11 20 -5 0 -8 4 -5 9 3 5 -1 12 -10 15 -12 5 -15 16 -12 41 4 37 0 43 -20 23z"/>
<path d="M1551 1198 c19 -35 36 -48 61 -48 13 0 29 -5 36 -12 7 -7 31 -12 54
-13 34 -1 45 -5 53 -23 5 -12 13 -22 17 -22 5 0 8 -7 8 -15 0 -8 5 -15 10 -15
6 0 10 5 10 10 0 6 4 10 10 10 5 0 9 -21 9 -47 -2 -69 12 -193 22 -193 4 0 9
-12 11 -27 4 -25 5 -26 13 -9 5 11 4 26 -4 38 -6 10 -9 23 -6 28 3 5 6 26 7
47 1 21 9 49 20 62 10 13 18 30 18 37 0 23 23 64 35 64 35 0 43 -212 11 -291
-7 -19 -11 -40 -8 -48 2 -7 -1 -17 -8 -21 -7 -4 -12 -19 -12 -33 0 -14 -7 -28
-14 -31 -19 -7 -18 -42 2 -50 9 -3 12 -2 9 4 -7 11 21 97 37 115 4 5 8 22 8
37 0 15 4 28 9 28 11 0 24 89 25 167 1 28 -2 49 -6 46 -5 -2 -8 0 -8 6 0 5 5
13 10 16 15 9 12 25 -5 25 -18 0 -20 17 -2 23 6 2 -5 7 -26 11 -46 9 -61 -2
-78 -52 -12 -36 -13 -36 -20 -12 -7 24 -7 24 -8 3 -2 -38 -16 -26 -18 15 -1
27 -10 44 -32 64 -17 15 -31 32 -31 37 0 12 -44 23 -63 15 -8 -3 -21 1 -28 9
-15 14 -79 40 -79 31 0 -3 -10 4 -22 16 -29 26 -42 26 -27 -2z"/>
<path d="M1285 1153 c3 -16 13 -44 22 -63 29 -67 32 -75 38 -107 4 -18 11 -33
16 -33 5 0 9 -7 9 -15 0 -8 6 -15 13 -15 6 0 23 -16 35 -35 13 -18 35 -41 48
-50 21 -14 22 -18 11 -37 -16 -29 -34 -48 -44 -48 -5 0 -28 -21 -52 -46 -41
-44 -44 -52 -51 -118 -8 -81 -18 -106 -57 -135 -25 -18 -26 -20 -7 -21 43 0
89 67 79 118 -12 66 28 127 143 222 17 14 39 42 48 63 18 38 13 60 -8 39 -7
-7 -28 -12 -48 -12 -27 0 -36 4 -37 18 -1 9 -20 36 -42 60 -25 26 -41 52 -41
68 0 23 -67 174 -77 174 -3 0 -2 -12 2 -27z"/>
<path d="M37 914 c-8 -9 14 -54 27 -54 6 0 24 -17 40 -38 17 -20 36 -41 43
-45 7 -4 13 -15 13 -24 0 -23 50 -73 73 -73 24 0 57 -17 81 -43 14 -14 19 -33
18 -71 l0 -51 13 48 c14 51 10 87 -10 87 -7 0 -15 7 -18 14 -3 8 -22 18 -41
22 -20 3 -36 10 -36 14 0 5 -12 11 -28 14 -23 6 -29 14 -40 58 -13 58 -14 59
-38 62 -10 2 -27 20 -39 42 -19 36 -43 52 -58 38z"/>
<path d="M936 719 c-5 -29 -2 -44 9 -55 8 -9 15 -22 15 -30 0 -8 5 -14 10 -14
14 0 12 12 -5 37 -9 13 -13 36 -10 62 5 53 -10 54 -19 0z"/>
<path d="M983 558 c1 -29 -1 -68 -5 -87 -5 -23 -2 -41 8 -55 8 -11 14 -34 14
-51 0 -17 7 -40 15 -51 8 -10 15 -34 15 -51 0 -29 3 -33 27 -33 31 0 113 37
130 59 7 9 13 24 13 33 0 10 11 20 25 24 27 7 28 8 19 42 -8 30 -24 28 -24 -4
0 -14 -4 -23 -10 -19 -5 3 -10 1 -10 -5 0 -6 -19 -31 -41 -55 -71 -77 -101
-60 -143 81 -18 60 -21 86 -14 111 8 29 -4 113 -16 113 -3 0 -3 -24 -3 -52z"/>
<path d="M1860 575 c0 -15 -6 -25 -38 -60 -7 -8 -13 -18 -13 -22 -1 -14 -33
-63 -41 -63 -4 0 -8 -6 -9 -12 0 -7 -18 -28 -41 -45 -22 -18 -33 -33 -25 -33
18 0 147 138 147 157 0 7 4 13 9 13 5 0 14 15 22 33 7 17 18 35 23 39 6 4 1 8
-11 8 -14 0 -23 -6 -23 -15z"/>
<path d="M338 473 c-3 -21 -1 -40 4 -41 5 -2 5 -9 0 -15 -19 -25 -22 -87 -4
-108 49 -58 118 -119 136 -119 16 0 4 29 -14 35 -31 10 -76 56 -99 102 -25 50
-27 73 -6 73 8 0 15 8 15 18 0 35 -13 92 -20 92 -4 0 -10 -17 -12 -37z"/>
<path d="M1438 480 c-10 -18 -25 -30 -38 -30 -19 0 -24 -10 -21 -37 1 -7 -2
-13 -7 -13 -12 0 -34 -49 -27 -61 12 -19 31 -7 60 38 17 26 38 59 47 73 17 26
23 60 11 60 -5 0 -16 -14 -25 -30z"/>
<path d="M1626 286 c-27 -25 -55 -46 -63 -46 -7 0 -16 -7 -19 -15 -4 -8 -10
-13 -14 -10 -5 3 -14 -1 -22 -8 -7 -8 -20 -16 -28 -20 -9 -3 -4 -6 13 -6 15
-1 27 3 27 8 0 5 12 13 28 19 15 5 41 23 57 38 17 16 41 37 54 46 13 9 21 22
19 29 -2 7 -24 -8 -52 -35z"/>
<path d="M1440 161 c0 -5 -22 -15 -50 -22 -27 -7 -50 -16 -50 -21 0 -4 -13 -8
-30 -8 -16 0 -30 -4 -30 -10 0 -5 4 -10 9 -10 25 0 181 66 181 77 0 1 -7 3
-15 3 -8 0 -15 -4 -15 -9z"/>
<path d="M580 144 c0 -9 82 -44 105 -44 15 0 25 -6 25 -14 0 -13 20 -19 110
-29 19 -3 62 -8 95 -12 53 -6 352 19 364 30 1 2 0 8 -3 13 -4 6 -33 4 -78 -4
-123 -23 -440 -12 -472 17 -6 5 -19 9 -31 9 -12 0 -26 5 -32 11 -10 10 -83 31
-83 23z"/>
</g>
</svg>
