 <svg  version="1.0" xmlns="http://www.w3.org/2000/svg"  width="300.000000pt" height="302.000000pt" viewBox="0 0 300.000000 302.000000"  preserveAspectRatio="xMidYMid meet">  <g transform="translate(0.000000,302.000000) scale(0.100000,-0.100000)" fill="#fdfcfc" stroke="none"> <path d="M1465 2993 c-45 -10 -82 -28 -125 -61 -85 -67 -139 -134 -199 -252 -24 -47 -46 -87 -48 -89 -2 -3 -22 13 -46 35 -87 83 -127 95 -204 59 -39 -17 -73 -25 -113 -25 -140 0 -261 -82 -300 -205 -29 -94 -22 -242 19 -365 17 -52 31 -102 31 -111 0 -11 -28 -28 -88 -52 -208 -87 -324 -188 -359 -312 -26 -92 -33 -139 -33 -209 0 -72 1 -75 34 -104 33 -28 67 -39 139 -41 15 0 62 -20 105 -43 73 -41 107 -56 180 -80 17 -6 32 -18 32 -26 0 -13 -20 -65 -40 -104 -22 -41 -61 -200 -67 -269 -8 -108 22 -204 80 -255 60 -52 115 -74 204 -80 80 -6 197 15 274 49 181 78 176 81 188 -110 2 -42 62 -92 219 -183 14 -8 33 -23 43 -32 31 -29 190 -37 231 -12 7 5 21 10 30 11 10 2 28 11 40 20 40 31 168 163 168 173 0 5 15 34 34 63 33 52 35 69 9 75 -8 1 -13 -9 -13 -28 0 -16 -4 -30 -10 -30 -5 0 -10 -7 -10 -15 0 -8 -9 -24 -20 -35 -11 -11 -20 -25 -20 -30 0 -6 -28 -38 -62 -71 -89 -86 -93 -89 -106 -89 -7 0 -12 -4 -12 -9 0 -11 -90 -23 -159 -21 -30 1 -67 9 -84 18 -16 9 -38 22 -48 28 -10 6 -31 24 -46 41 -15 16 -47 38 -70 47 -66 29 -83 55 -83 131 0 52 -4 69 -20 85 -12 12 -18 25 -15 30 8 13 -3 50 -15 50 -12 0 -90 -52 -90 -61 0 -4 -8 -5 -19 -2 -10 2 -36 -5 -57 -16 -21 -12 -46 -21 -56 -21 -9 0 -19 -4 -22 -9 -5 -8 -53 -14 -196 -26 -45 -4 -170 46 -170 67 0 4 -5 8 -11 8 -20 0 -57 59 -75 120 -9 32 -3 165 9 200 14 40 31 117 30 132 -1 10 2 18 6 18 5 0 11 13 14 28 3 15 22 52 41 81 20 29 36 57 36 62 0 5 -16 9 -35 9 -19 0 -43 4 -53 9 -18 9 -60 26 -77 31 -5 2 -27 14 -47 26 -21 13 -42 24 -47 24 -5 0 -24 12 -41 27 -25 20 -45 27 -89 30 -86 6 -98 10 -120 47 -25 40 -27 102 -5 134 9 13 17 49 18 85 4 67 29 125 75 171 31 31 114 90 156 111 17 9 37 19 45 24 33 20 107 51 123 51 9 0 17 5 17 11 0 7 10 9 25 5 18 -5 27 -2 31 9 6 15 -26 105 -38 105 -6 0 -22 73 -18 86 1 4 -4 10 -10 14 -21 13 -19 320 2 320 4 0 8 6 8 13 0 22 63 84 120 117 51 30 59 32 135 28 65 -2 86 0 109 15 45 30 89 32 134 7 22 -12 46 -34 53 -47 7 -14 26 -36 42 -49 23 -19 32 -22 48 -13 11 5 18 13 15 17 -2 4 4 25 15 46 10 22 19 46 19 53 0 7 5 13 10 13 6 0 10 9 10 20 0 11 5 20 10 20 6 0 10 8 10 18 0 9 14 31 30 49 17 18 30 39 30 47 0 10 6 13 15 10 11 -5 13 -2 9 10 -3 9 -1 16 5 16 7 0 22 10 34 23 23 22 50 42 77 54 8 4 18 11 22 17 11 16 184 14 200 -2 6 -6 20 -12 30 -12 10 0 18 -4 18 -9 0 -6 14 -18 30 -28 17 -9 30 -23 30 -30 0 -7 6 -13 13 -13 16 -1 80 -82 109 -139 13 -25 26 -47 31 -49 4 -2 7 -12 7 -22 0 -10 5 -20 11 -22 6 -2 13 -25 16 -50 7 -57 26 -68 61 -33 13 14 33 25 43 25 10 0 21 5 24 10 3 6 13 10 21 10 8 0 34 9 58 21 25 11 51 22 58 23 7 1 40 8 73 15 70 16 207 10 229 -9 9 -7 16 -9 16 -4 0 4 10 -2 23 -14 13 -12 26 -20 29 -17 3 3 13 -7 23 -22 10 -15 26 -33 34 -40 9 -7 13 -13 9 -13 -4 0 0 -16 8 -35 18 -44 18 -148 0 -209 -13 -44 -13 -50 5 -79 41 -69 10 -151 -73 -190 -69 -33 -72 -76 -6 -77 15 0 30 -4 33 -10 3 -5 15 -10 26 -10 18 0 57 -18 69 -31 3 -3 25 -13 50 -23 25 -10 61 -27 80 -39 45 -27 149 -135 161 -166 16 -41 21 -163 8 -208 -18 -65 -130 -171 -227 -214 -17 -7 -32 -17 -32 -21 0 -5 -12 -8 -26 -8 -14 0 -23 -4 -19 -10 3 -5 -2 -10 -13 -10 -10 0 -32 -7 -48 -15 -17 -8 -44 -15 -62 -17 -38 -3 -42 -25 -12 -67 10 -16 24 -46 29 -67 5 -21 17 -66 26 -99 24 -85 17 -254 -12 -310 -24 -46 -85 -115 -102 -115 -6 0 -11 -4 -11 -9 0 -14 -37 -21 -143 -28 -81 -5 -114 -2 -195 17 -96 22 -162 47 -162 62 0 5 -11 8 -24 8 -20 0 -24 -4 -21 -25 1 -14 -3 -25 -8 -25 -8 0 -8 -3 0 -11 8 -8 16 -7 31 2 16 10 36 7 123 -21 92 -29 118 -33 219 -34 137 -1 182 15 258 92 67 68 87 129 87 262 0 89 -5 121 -33 211 -17 59 -32 110 -32 115 0 11 91 54 113 54 8 0 20 6 26 13 6 8 30 22 53 33 24 10 45 21 48 24 3 3 23 18 46 33 45 31 64 48 112 100 l32 36 0 136 c0 94 -4 140 -12 151 -46 54 -128 132 -153 145 -135 70 -215 109 -223 109 -5 0 -14 6 -20 13 -9 10 -1 23 32 56 61 59 75 107 53 174 -13 39 -17 80 -15 162 1 72 -3 124 -12 150 -35 105 -150 181 -276 184 -89 2 -258 -36 -309 -69 -17 -11 -106 -42 -110 -39 -1 2 -27 51 -56 109 -41 82 -68 121 -123 176 -109 111 -206 150 -311 127z"/> <path d="M1469 2835 c-37 -13 -128 -100 -129 -122 0 -7 -4 -13 -9 -13 -5 0 -11 -8 -14 -17 -3 -10 -13 -31 -23 -48 -28 -50 -34 -64 -34 -85 0 -11 -4 -20 -9 -20 -12 0 -21 -27 -15 -45 3 -8 21 -19 39 -25 18 -6 40 -19 50 -30 10 -11 22 -17 26 -14 16 9 -10 42 -41 52 -25 9 -30 16 -30 43 0 32 52 152 76 177 7 7 29 32 49 56 84 102 178 91 269 -32 35 -49 106 -198 106 -225 0 -14 -27 -32 -42 -29 -5 1 -8 -2 -8 -7 0 -10 -85 -71 -100 -71 -4 0 -10 -4 -12 -8 -1 -4 -18 -18 -36 -31 -33 -23 -82 -23 -82 -1 0 6 -11 15 -25 20 -14 5 -25 14 -25 20 0 5 -6 10 -14 10 -8 0 -16 7 -20 15 -3 8 -14 15 -24 15 -10 0 -19 -7 -19 -15 0 -8 8 -15 18 -15 10 0 22 -6 26 -14 4 -7 24 -21 43 -31 19 -10 42 -26 50 -36 24 -27 52 -27 66 -1 6 13 14 23 18 22 16 -2 66 32 66 45 0 8 9 15 19 15 29 0 51 11 51 25 0 12 47 29 66 25 3 -1 12 6 18 16 11 14 10 24 -2 56 -8 21 -19 38 -24 38 -4 0 -8 9 -8 21 0 22 -29 81 -42 87 -5 2 -8 10 -8 18 0 16 -6 24 -69 95 -69 77 -115 93 -192 64z"/> <path d="M965 2549 c-4 -6 -5 -13 -2 -16 7 -7 27 6 27 18 0 12 -17 12 -25 -2z"/> <path d="M2260 2529 c-19 -6 -48 -16 -65 -23 -16 -8 -52 -24 -80 -36 -27 -12 -58 -26 -67 -31 -10 -5 -24 -9 -31 -9 -19 0 -52 -37 -37 -42 6 -2 21 -37 32 -78 24 -89 27 -105 35 -192 3 -38 8 -68 12 -68 51 -4 104 -10 126 -14 16 -3 49 -9 74 -13 55 -9 50 -7 83 -21 56 -23 72 2 72 114 l1 72 53 50 52 50 0 91 c0 50 -4 91 -9 91 -5 0 -13 9 -16 20 -10 33 -57 50 -132 49 -37 0 -84 -5 -103 -10z m196 -47 c27 -24 29 -30 29 -98 0 -72 -1 -74 -41 -116 -57 -59 -68 -83 -70 -156 0 -34 -4 -65 -7 -68 -18 -19 -251 17 -279 43 -9 8 -20 36 -23 62 -3 25 -13 80 -21 121 -15 72 -16 134 -3 128 4 -2 15 4 25 13 25 22 67 42 139 67 84 29 92 30 161 30 50 -1 66 -5 90 -26z"/> <path d="M702 2508 c-53 -7 -69 -14 -93 -40 -16 -18 -34 -48 -40 -67 -17 -49 -1 -206 26 -257 8 -16 15 -37 15 -46 0 -10 5 -18 10 -18 6 0 10 -12 10 -27 0 -30 6 -41 32 -61 14 -11 22 -10 50 4 18 9 41 17 52 18 11 1 21 7 24 14 4 14 0 14 -51 3 -46 -11 -65 3 -97 75 -25 53 -28 64 -42 159 -14 86 -6 131 30 174 23 28 36 34 79 38 47 5 53 3 90 -30 55 -50 85 -59 161 -51 l65 7 -8 -69 c-4 -38 -11 -77 -16 -86 -8 -15 -17 -73 -18 -120 -1 -27 -50 -73 -79 -74 -79 -1 -102 -5 -102 -15 0 -19 189 5 191 25 0 6 2 32 4 57 2 26 14 84 25 130 12 46 24 95 27 109 2 13 9 27 15 31 5 4 8 15 6 24 -4 25 -54 37 -98 25 -71 -20 -97 -13 -143 35 -24 25 -48 44 -53 44 -5 -1 -38 -6 -72 -11z"/> <path d="M1179 2348 c-1 -7 -1 -19 0 -26 3 -19 -39 -204 -50 -226 -13 -23 1 -39 25 -30 12 5 16 17 15 48 -1 48 9 114 22 139 5 9 7 17 4 17 -3 0 -1 9 5 20 l11 21 40 -23 c21 -12 39 -25 39 -30 0 -4 7 -8 15 -8 28 0 75 -42 75 -67 0 -21 3 -22 20 -13 11 6 20 15 20 21 0 14 -26 39 -40 39 -6 0 -21 9 -33 21 -12 11 -35 28 -51 36 -16 8 -43 28 -60 44 -33 31 -55 37 -57 17z"/> <path d="M1840 2341 c0 -20 -68 -78 -125 -106 -33 -16 -62 -30 -64 -32 -8 -5 22 -33 35 -33 7 0 33 -20 58 -45 26 -25 49 -45 54 -45 122 -8 140 -6 123 14 -5 6 -12 23 -15 36 -2 14 -10 48 -16 75 -16 75 -17 89 -7 103 7 9 4 17 -9 27 -22 17 -34 19 -34 6z m11 -71 c1 -5 2 -14 3 -19 0 -5 4 -13 9 -17 4 -4 7 -22 7 -41 0 -18 4 -33 8 -33 5 0 6 -14 4 -31 l-5 -31 -50 6 c-30 3 -54 12 -59 21 -5 8 -16 15 -23 15 -8 0 -15 7 -15 15 0 8 -4 15 -10 15 -24 0 -7 38 25 56 19 10 35 22 35 26 0 5 7 8 15 8 8 0 15 5 15 10 0 6 9 10 20 10 11 0 21 -4 21 -10z"/> <path d="M1329 2134 c-17 -21 -53 -35 -109 -44 l-45 -7 61 -2 c48 -1 64 3 80 19 33 33 45 50 36 50 -5 0 -16 -7 -23 -16z"/> <path d="M1515 2102 c-5 -4 -11 -14 -11 -23 -1 -14 4 -15 27 -9 16 5 33 10 37 11 29 7 34 12 20 20 -16 11 -59 11 -73 1z"/> <path d="M1106 1919 c-29 -35 -33 -48 -11 -45 20 3 65 46 65 63 0 23 -27 14 -54 -18z"/> <path d="M1365 1930 c-3 -5 3 -10 14 -10 12 0 21 5 21 10 0 6 -6 10 -14 10 -8 0 -18 -4 -21 -10z"/> <path d="M1720 1930 c0 -8 25 -20 43 -20 8 0 7 4 -1 12 -14 14 -42 20 -42 8z"/> <path d="M1910 1931 c0 -15 28 -33 40 -26 7 5 5 12 -7 21 -21 16 -33 18 -33 5z"/> <path d="M2073 1909 c-9 -9 -8 -18 4 -35 17 -26 33 -31 33 -11 0 16 48 14 101 -3 31 -10 35 -16 31 -37 -3 -14 -10 -27 -17 -30 -7 -2 -19 -18 -25 -34 -13 -31 -37 -38 -46 -14 -4 8 -10 13 -15 10 -7 -5 27 -75 37 -75 3 0 12 16 20 35 16 40 35 65 82 111 19 18 32 38 30 45 -2 7 -34 12 -80 14 -44 2 -90 10 -107 19 -36 19 -34 19 -48 5z"/> <path d="M936 1901 c-6 -9 -102 -24 -170 -25 -22 -1 -41 -6 -43 -11 -2 -6 12 -29 32 -50 19 -22 35 -43 35 -47 0 -5 5 -8 10 -8 6 0 4 13 -5 30 -8 16 -15 34 -15 39 0 16 30 28 87 35 39 5 55 3 66 -9 21 -20 27 -19 27 4 0 11 5 23 10 26 6 4 8 11 5 16 -8 12 -32 12 -39 0z"/> <path d="M1513 1863 c9 -2 25 -2 35 0 9 3 1 5 -18 5 -19 0 -27 -2 -17 -5z"/> <path d="M2084 1826 c-8 -21 14 -66 33 -66 11 0 10 7 -2 37 -20 47 -23 50 -31 29z"/> <path d="M2416 1800 c-10 -22 -22 -40 -27 -40 -5 0 -9 -4 -9 -10 0 -16 18 -11 45 12 14 12 32 23 41 24 9 1 18 5 21 8 3 3 17 -4 31 -14 13 -11 32 -20 41 -20 24 0 101 -31 156 -64 59 -34 101 -78 121 -124 13 -28 12 -36 -1 -61 -27 -53 -95 -100 -245 -171 -33 -15 -118 -33 -133 -27 -8 3 -17 15 -19 27 -2 11 -7 19 -13 18 -5 -2 -8 -7 -6 -13 2 -5 9 -25 15 -42 13 -40 32 -48 62 -28 13 8 29 15 37 15 7 0 32 9 55 20 22 11 48 20 56 20 8 0 17 4 21 9 3 6 31 22 63 37 60 29 139 103 149 142 16 64 -45 149 -141 198 -31 15 -56 32 -56 36 0 4 -11 8 -25 8 -14 0 -43 9 -65 20 -22 11 -46 20 -55 20 -8 0 -15 5 -15 10 0 6 -11 10 -24 10 -14 0 -28 5 -31 10 -13 20 -32 9 -49 -30z"/> <path d="M521 1805 c-29 -14 -62 -25 -72 -25 -11 0 -19 -4 -19 -10 0 -5 -11 -10 -24 -10 -13 0 -29 -7 -36 -15 -7 -8 -21 -15 -32 -15 -10 0 -21 -7 -24 -15 -4 -8 -11 -15 -16 -15 -28 0 -90 -59 -114 -109 l-26 -54 45 -41 c25 -23 48 -53 52 -68 4 -14 14 -29 23 -32 10 -3 24 -10 32 -16 28 -18 188 -90 202 -90 8 0 23 -7 34 -15 10 -8 34 -15 52 -15 27 0 32 4 32 24 0 13 6 26 13 29 6 2 9 8 5 12 -5 5 -16 1 -26 -8 -31 -29 -70 -20 -207 44 -76 35 -145 85 -145 105 -1 5 -14 25 -30 44 -17 19 -30 45 -30 58 0 28 88 114 135 133 17 7 36 17 44 23 7 5 18 11 25 12 6 2 36 12 66 23 62 24 96 27 102 9 2 -6 11 -9 20 -5 13 4 15 13 9 34 -10 36 -24 37 -90 8z"/> <path d="M932 1762 c1 -4 -2 -14 -6 -23 -4 -8 -2 -26 3 -40 l10 -24 0 23 c1 13 5 32 11 42 7 13 6 19 -5 24 -8 3 -14 2 -13 -2z"/> <path d="M1908 1755 c13 -9 26 -14 29 -11 8 8 3 12 -27 21 l-25 7 23 -17z"/> <path d="M816 1741 c-3 -4 4 -18 15 -30 12 -12 24 -34 28 -49 9 -33 35 -36 39 -4 3 20 -6 27 -30 23 -5 0 -8 6 -8 14 0 18 -37 57 -44 46z"/> <path d="M641 1710 c0 -21 26 -53 33 -42 3 6 -3 21 -14 33 -13 17 -19 19 -19 9z"/> <path d="M2360 1709 c0 -6 -14 -30 -30 -54 -18 -26 -26 -46 -20 -50 5 -3 10 0 10 8 0 8 9 22 20 32 11 10 20 23 20 28 0 5 7 15 16 22 16 11 16 12 0 18 -9 4 -16 2 -16 -4z"/> <path d="M1100 1658 c0 -19 2 -20 10 -8 13 19 13 30 0 30 -5 0 -10 -10 -10 -22z"/> <path d="M2272 1589 c-10 -16 -11 -24 -1 -35 10 -12 14 -11 27 7 12 18 12 23 1 35 -12 12 -16 11 -27 -7z"/> <path d="M720 1580 c0 -11 5 -20 10 -20 6 0 10 9 10 20 0 11 -4 20 -10 20 -5 0 -10 -9 -10 -20z"/> <path d="M750 1519 c0 -38 24 -35 28 4 2 19 -1 27 -12 27 -11 0 -16 -10 -16 -31z"/> <path d="M2340 1470 c0 -11 5 -20 10 -20 6 0 10 -8 10 -17 0 -11 3 -14 10 -7 7 7 6 19 -2 37 -15 32 -28 35 -28 7z"/> <path d="M715 1459 c-4 -6 -5 -13 -2 -16 7 -7 27 6 27 18 0 12 -17 12 -25 -2z"/> <path d="M2150 1429 c0 -25 33 -22 38 4 2 12 -3 17 -17 17 -15 0 -21 -6 -21 -21z"/> <path d="M683 1411 c-10 -16 -9 -18 8 -14 10 3 19 12 19 19 0 20 -13 17 -27 -5z"/> <path d="M855 1368 c-16 -39 -10 -50 11 -20 9 13 21 19 30 15 14 -5 15 -3 5 15 -16 31 -30 27 -46 -10z"/> <path d="M2104 1365 c-4 -14 -4 -29 0 -32 3 -4 6 3 6 15 0 12 5 22 10 22 6 0 10 5 10 10 0 21 -20 9 -26 -15z"/> <path d="M2200 1376 c0 -8 5 -18 10 -21 6 -3 10 3 10 14 0 12 -4 21 -10 21 -5 0 -10 -6 -10 -14z"/> <path d="M652 1368 c-16 -16 -15 -29 2 -22 16 6 30 34 18 34 -5 0 -13 -5 -20 -12z"/> <path d="M2230 1340 c0 -5 11 -26 25 -46 29 -43 25 -54 -20 -54 -18 0 -35 -4 -37 -9 -4 -12 -58 -16 -81 -6 -25 10 -50 -14 -36 -35 8 -13 11 -13 22 0 7 9 34 16 67 19 30 2 60 6 65 10 6 3 24 7 40 7 59 3 65 4 65 14 0 5 -13 16 -30 25 -16 9 -30 22 -30 30 0 8 -4 15 -9 15 -5 0 -11 9 -14 20 -5 20 -27 28 -27 10z"/> <path d="M767 1258 c-15 -16 -27 -33 -27 -38 0 -4 37 -10 83 -13 97 -6 109 -8 122 -24 6 -8 15 -9 25 -3 12 7 12 12 0 34 -12 23 -15 24 -30 11 -16 -14 -53 -11 -76 7 -7 5 -16 8 -20 7 -31 -5 -46 2 -41 21 8 32 -7 31 -36 -2z"/> <path d="M1920 1190 c-24 -24 -26 -39 -5 -36 16 2 44 26 31 26 -5 0 -3 7 4 15 19 23 -6 19 -30 -5z"/> <path d="M2342 1094 c-12 -8 -22 -13 -22 -11 0 3 -19 -1 -42 -8 -24 -7 -51 -11 -60 -9 -10 1 -18 -1 -18 -5 0 -6 -51 -11 -106 -11 -12 0 -28 -8 -35 -17 -10 -12 -10 -15 -1 -9 6 4 12 3 12 -2 0 -11 48 -3 56 9 3 5 22 9 42 9 20 0 67 7 104 14 71 16 108 12 108 -10 0 -8 5 -14 10 -14 6 0 10 -9 10 -20 0 -12 6 -31 14 -43 8 -12 20 -51 25 -87 23 -138 9 -216 -43 -244 -37 -20 -137 -23 -201 -6 -22 6 -45 12 -52 13 -7 2 -16 6 -19 10 -4 4 -16 7 -26 7 -10 0 -31 8 -46 17 -15 9 -28 18 -30 19 -1 1 1 20 7 43 9 42 -1 65 -15 33 -4 -9 -6 -21 -5 -25 0 -4 -6 -21 -14 -38 -20 -37 -15 -45 32 -53 21 -3 50 -12 65 -20 58 -30 121 -45 213 -47 110 -4 175 51 181 154 3 54 -24 200 -38 205 -4 2 -8 17 -8 33 0 16 -4 29 -9 29 -5 0 -12 17 -16 38 -11 62 -32 75 -73 46z"/> <path d="M660 1085 c-7 -8 -9 -15 -5 -15 4 0 2 -7 -5 -15 -7 -8 -9 -15 -4 -15 5 0 4 -4 -2 -8 -24 -16 -73 -147 -105 -280 -10 -42 -11 -62 0 -99 15 -57 22 -66 67 -88 28 -13 50 -15 110 -10 41 4 74 11 74 16 0 5 11 9 24 9 14 0 27 4 30 9 3 5 23 12 43 16 21 4 45 12 53 19 8 7 36 19 62 26 61 16 71 28 53 64 -8 16 -15 34 -15 42 0 7 -5 16 -12 20 -8 5 -10 -4 -6 -34 8 -53 -3 -62 -117 -102 -194 -69 -260 -73 -313 -19 -26 27 -29 36 -27 82 2 48 42 206 54 217 7 6 31 68 36 95 5 23 44 55 59 49 36 -13 173 -30 186 -23 12 7 11 9 -5 9 -11 1 -27 3 -35 6 -8 2 -42 9 -75 15 -33 6 -64 15 -69 20 -15 14 -42 11 -56 -6z"/> <path d="M945 1022 c12 -9 25 -26 30 -37 7 -18 9 -17 15 10 9 40 5 45 -33 45 -32 -1 -32 -1 -12 -18z"/> <path d="M1887 1015 c-8 -20 11 -29 29 -14 12 10 12 14 2 20 -19 12 -25 11 -31 -6z"/> <path d="M1139 1003 c5 -11 12 -37 14 -59 2 -21 9 -52 16 -67 6 -16 11 -48 11 -72 0 -54 10 -62 40 -30 13 14 22 26 19 27 -2 2 -13 8 -23 13 -25 14 -47 88 -44 150 3 46 1 50 -20 53 -20 3 -22 1 -13 -15z"/> <path d="M1470 1006 c0 -17 18 -25 43 -18 29 8 20 32 -13 32 -19 0 -30 -5 -30 -14z"/> <path d="M989 945 c-4 -3 -2 -27 3 -53 4 -26 10 -58 13 -71 5 -26 12 -37 20 -29 4 3 -2 40 -12 82 -10 42 -21 74 -24 71z"/> <path d="M1340 896 c0 -19 4 -23 20 -19 11 3 23 10 27 16 3 6 1 7 -5 3 -7 -4 -12 -3 -12 2 0 6 -7 12 -15 16 -11 4 -15 -1 -15 -18z"/> <path d="M1635 910 c-8 -13 -1 -24 14 -19 6 3 7 10 2 18 -6 10 -10 10 -16 1z"/> <path d="M2047 894 c-3 -3 -3 -12 -1 -19 3 -7 1 -16 -5 -20 -13 -8 -15 -35 -2 -35 5 0 12 16 16 36 6 36 4 49 -8 38z"/> <path d="M1270 840 c-19 -15 -21 -20 -9 -20 16 0 46 27 38 35 -2 2 -15 -5 -29 -15z"/> <path d="M1863 831 c-11 -11 -23 -26 -26 -33 -4 -11 -8 -11 -27 0 -35 21 -35 7 1 -27 44 -43 63 -41 56 4 -4 25 -2 37 10 43 9 5 14 15 12 21 -3 8 -12 5 -26 -8z"/> <path d="M1491 797 c-18 -18 -13 -27 14 -27 15 0 25 6 25 14 0 19 -25 27 -39 13z"/> <path d="M1355 689 c-16 -10 -40 -23 -53 -29 -13 -5 -20 -14 -17 -20 7 -12 35 1 55 24 7 9 18 16 26 16 12 0 30 18 23 24 -2 2 -17 -5 -34 -15z"/> <path d="M1648 689 c5 -13 14 -24 21 -24 20 0 17 17 -7 33 -22 14 -22 14 -14 -9z"/> <path d="M1700 650 c19 -13 30 -13 30 0 0 6 -10 10 -22 10 -19 0 -20 -2 -8 -10z"/> <path d="M1244 635 c-18 -13 -18 -15 -2 -47 9 -18 19 -45 22 -60 5 -20 14 -28 38 -34 18 -3 43 -18 56 -33 26 -30 45 -91 36 -116 -9 -23 41 -73 88 -87 31 -9 46 -8 85 7 48 18 83 45 83 65 0 5 7 10 15 10 8 0 21 14 30 30 9 17 20 30 25 30 6 0 10 11 10 24 0 13 3 26 8 28 12 5 72 128 72 147 0 11 -12 24 -30 31 -36 15 -49 7 -26 -15 9 -9 16 -24 16 -32 0 -22 -83 -193 -94 -193 -5 0 -26 -20 -48 -45 -42 -48 -82 -62 -138 -50 -34 7 -51 34 -70 113 -11 42 -71 122 -93 122 -5 0 -21 12 -34 27 -19 19 -23 33 -19 54 7 34 -5 43 -30 24z"/> </g> </svg> 